<?xml version="1.0" standalone="no"?><!DOCTYPE svg PUBLIC "-//W3C//DTD SVG 1.1//EN" "http://www.w3.org/Graphics/SVG/1.1/DTD/svg11.dtd" ><svg version="1.1" xmlns="http://www.w3.org/2000/svg"><defs><font horiz-adv-x="0" id="font"><font-face ascent="838" bbox="-183 -208 1103 930" cap-height="700" descent="-162" font-family="Stag Web" font-stretch="normal" font-style="normal" font-weight="400" units-per-em="1000" x-height="524" /><missing-glyph horiz-adv-x="503" /><glyph glyph-name=".null" horiz-adv-x="0" /><glyph d="M482 221H208L181 144Q167 106 173.5 85Q180 64 213 64H260V0H11V64H36Q51 64 62 73.5Q73 83 79 98L260 600Q265 615 259 624.5Q253 634 239 634H185V700H438L643 97Q648 83 659 73.5Q670 64 683 64H710V0H437V64H535ZM233 289H460L352 614H348Z" glyph-name="A" horiz-adv-x="721" unicode="A" /><glyph d="M944 514H871L859 629H599V392H727L735 475H805V240H735L727 323H599V70H868L880 198H955V0H411V64H484V221H236L193 144Q172 107 181 85.5Q190 64 222 64H268V0H11V64H34Q50 64 61 73Q72 82 80 98L357 599Q365 613 358.5 623.5Q352 634 338 634H285V700H944ZM463 628 273 289H484V628Z" glyph-name="AE" horiz-adv-x="975" unicode="&#198;" /><glyph d="M482 221H208L181 144Q167 106 173.5 85Q180 64 213 64H260V0H11V64H36Q51 64 62 73.5Q73 83 79 98L260 600Q265 615 259 624.5Q253 634 239 634H185V700H438L643 97Q648 83 659 73.5Q670 64 683 64H710V0H437V64H535ZM233 289H460L352 614H348ZM354 869H462V830L368 736H308Z" glyph-name="Aacute" horiz-adv-x="721" unicode="&#193;" /><glyph d="M482 221H208L181 144Q167 106 173.5 85Q180 64 213 64H260V0H11V64H36Q51 64 62 73.5Q73 83 79 98L260 600Q265 615 259 624.5Q253 634 239 634H185V700H438L643 97Q648 83 659 73.5Q670 64 683 64H710V0H437V64H535ZM233 289H460L352 614H348ZM221 765 296 869H391L464 765V736H420L341 805L263 736H221Z" glyph-name="Acircumflex" horiz-adv-x="721" unicode="&#194;" /><glyph d="M482 221H208L181 144Q167 106 173.5 85Q180 64 213 64H260V0H11V64H36Q51 64 62 73.5Q73 83 79 98L260 600Q265 615 259 624.5Q253 634 239 634H185V700H438L643 97Q648 83 659 73.5Q670 64 683 64H710V0H437V64H535ZM233 289H460L352 614H348ZM259 748Q234 748 217 765Q200 782 200 806Q200 830 217 847Q234 864 259 864Q284 864 301 847Q318 830 318 806Q318 782 301 765Q284 748 259 748ZM431 748Q406 748 389 765Q372 782 372 806Q372 830 389 847Q406 864 431 864Q456 864 473 847Q490 830 490 806Q490 782 473 765Q456 748 431 748Z" glyph-name="Adieresis" horiz-adv-x="721" unicode="&#196;" /><glyph d="M482 221H208L181 144Q167 106 173.5 85Q180 64 213 64H260V0H11V64H36Q51 64 62 73.5Q73 83 79 98L260 600Q265 615 259 624.5Q253 634 239 634H185V700H438L643 97Q648 83 659 73.5Q670 64 683 64H710V0H437V64H535ZM233 289H460L352 614H348ZM228 830V869H336L382 736H322Z" glyph-name="Agrave" horiz-adv-x="721" unicode="&#192;" /><glyph d="M482 221H208L181 144Q167 106 173.5 85Q180 64 213 64H260V0H11V64H36Q51 64 62 73.5Q73 83 79 98L260 600Q265 615 259 624.5Q253 634 239 634H185V700H438L643 97Q648 83 659 73.5Q670 64 683 64H710V0H437V64H535ZM233 289H460L352 614H348ZM343 738Q303 738 273.5 763.5Q244 789 244 834Q244 879 273.5 904.5Q303 930 343 930Q383 930 412.5 904.5Q442 879 442 834Q442 789 412.5 763.5Q383 738 343 738ZM343 782Q365 782 379.5 796Q394 810 394 834Q394 859 379.5 873Q365 887 343 887Q321 887 307 873Q293 859 293 834Q293 810 307 796Q321 782 343 782Z" glyph-name="Aring" horiz-adv-x="721" unicode="&#197;" /><glyph d="M482 221H208L181 144Q167 106 173.5 85Q180 64 213 64H260V0H11V64H36Q51 64 62 73.5Q73 83 79 98L260 600Q265 615 259 624.5Q253 634 239 634H185V700H438L643 97Q648 83 659 73.5Q670 64 683 64H710V0H437V64H535ZM233 289H460L352 614H348ZM186 797Q197 820 218 837.5Q239 855 276 855Q293 855 311 850Q329 845 346 839Q363 833 378 828Q393 823 404 823Q421 823 431 832.5Q441 842 446 859H498V803Q487 780 466 762.5Q445 745 408 745Q391 745 373 750.5Q355 756 338 762.5Q321 769 306 774.5Q291 780 280 780Q263 780 253 769.5Q243 759 238 742H186Z" glyph-name="Atilde" horiz-adv-x="721" unicode="&#195;" /><glyph d="M16 66H58Q69 66 79 76.5Q89 87 89 98V603Q89 614 79 625Q69 636 58 636H16V700H295Q412 700 479 658.5Q546 617 546 523Q546 455 508.5 420Q471 385 405 371V368Q483 357 529.5 317Q576 277 576 199Q576 148 556.5 110.5Q537 73 501.5 48.5Q466 24 416.5 12Q367 0 306 0H16ZM303 70Q384 70 419.5 103.5Q455 137 455 204Q455 271 419.5 301Q384 331 299 331H205V70ZM291 399Q361 399 395.5 426Q430 453 430 515Q430 579 395.5 604Q361 629 292 629H205V399Z" glyph-name="B" horiz-adv-x="598" unicode="B" /><glyph d="M359 -7Q283 -7 221.5 16Q160 39 116.5 84.5Q73 130 49.5 196.5Q26 263 26 350Q26 437 51 503.5Q76 570 121 615.5Q166 661 228.5 684Q291 707 365 707Q426 707 458 697.5Q490 688 505 681Q519 681 521 700H594V486H515L503 585Q481 603 448.5 616Q416 629 368 629Q321 629 281 613Q241 597 211.5 563.5Q182 530 165 478Q148 426 148 354Q148 211 204 140Q260 69 363 69Q432 69 477 94Q522 119 551 158H606V76Q563 40 503.5 16.5Q444 -7 359 -7Z" glyph-name="C" horiz-adv-x="630" unicode="C" /><glyph d="M338 -175Q312 -175 294 -170Q276 -165 260 -158V-110H289Q294 -117 304 -121.5Q314 -126 328 -126Q364 -126 364 -99Q364 -71 318 -71H300V-3Q237 5 186.5 32Q136 59 100 103.5Q64 148 45 210Q26 272 26 350Q26 437 51 503.5Q76 570 121 615.5Q166 661 228.5 684Q291 707 365 707Q426 707 458 697.5Q490 688 505 681Q519 681 521 700H594V486H515L503 585Q481 603 448.5 616Q416 629 368 629Q321 629 281 613Q241 597 211.5 563.5Q182 530 165 478Q148 426 148 354Q148 211 204 140Q260 69 363 69Q432 69 477 94Q522 119 551 158H606V76Q563 40 503.5 16.5Q444 -7 359 -7H351V-31Q435 -34 435 -102Q435 -137 409 -156Q383 -175 338 -175Z" glyph-name="Ccedilla" horiz-adv-x="630" unicode="&#199;" /><glyph d="M16 64H58Q69 64 79 74.5Q89 85 89 96V601Q89 612 79 623Q69 634 58 634H16V700H299Q386 700 454 680Q522 660 568.5 617.5Q615 575 639 509Q663 443 663 352Q663 172 567.5 86Q472 0 295 0H16ZM295 68Q421 68 481.5 134.5Q542 201 542 351Q542 426 527 478.5Q512 531 481.5 564.5Q451 598 404.5 613.5Q358 629 295 629H205V68Z" glyph-name="D" horiz-adv-x="690" unicode="D" /><glyph d="M16 64H58Q69 64 79 74.5Q89 85 89 96V601Q89 612 79 623Q69 634 58 634H16V700H557V514H484L472 629H203V392H340L348 475H418V240H348L340 323H203V70H481L493 198H568V0H16Z" glyph-name="E" horiz-adv-x="588" unicode="E" /><glyph d="M311 869H419V830L325 736H265ZM16 64H58Q69 64 79 74.5Q89 85 89 96V601Q89 612 79 623Q69 634 58 634H16V700H557V514H484L472 629H203V392H340L348 475H418V240H348L340 323H203V70H481L493 198H568V0H16Z" glyph-name="Eacute" horiz-adv-x="588" unicode="&#201;" /><glyph d="M183 765 258 869H353L426 765V736H382L303 805L225 736H183ZM16 64H58Q69 64 79 74.5Q89 85 89 96V601Q89 612 79 623Q69 634 58 634H16V700H557V514H484L472 629H203V392H340L348 475H418V240H348L340 323H203V70H481L493 198H568V0H16Z" glyph-name="Ecircumflex" horiz-adv-x="588" unicode="&#202;" /><glyph d="M219 748Q194 748 177 765Q160 782 160 806Q160 830 177 847Q194 864 219 864Q244 864 261 847Q278 830 278 806Q278 782 261 765Q244 748 219 748ZM391 748Q366 748 349 765Q332 782 332 806Q332 830 349 847Q366 864 391 864Q416 864 433 847Q450 830 450 806Q450 782 433 765Q416 748 391 748ZM16 64H58Q69 64 79 74.5Q89 85 89 96V601Q89 612 79 623Q69 634 58 634H16V700H557V514H484L472 629H203V392H340L348 475H418V240H348L340 323H203V70H481L493 198H568V0H16Z" glyph-name="Edieresis" horiz-adv-x="588" unicode="&#203;" /><glyph d="M16 64H58Q69 64 79 74.5Q89 85 89 96V601Q89 612 79 623Q69 634 58 634H16V700H557V514H484L472 629H203V392H340L348 475H418V240H348L340 323H203V70H481L493 198H568V0H16ZM188 830V869H296L342 736H282Z" glyph-name="Egrave" horiz-adv-x="588" unicode="&#200;" /><glyph d="M16 64H58Q69 64 79 74.5Q89 85 89 96V313H17V380H89V601Q89 612 79 623Q69 634 58 634H16V700H299Q386 700 454 680Q522 660 568.5 617.5Q615 575 639 509Q663 443 663 352Q663 172 567.5 86Q472 0 295 0H16ZM295 68Q421 68 483 134.5Q545 201 545 351Q545 500 483.5 564.5Q422 629 295 629H205V380H373V313H205V68Z" glyph-name="Eth" horiz-adv-x="690" unicode="&#208;" /><glyph d="M21 314H75Q74 319 74 331.5Q74 344 74 349Q74 353 74.5 364Q75 375 75 380H21V443H81Q102 572 179 639.5Q256 707 371 707Q434 707 479.5 698Q525 689 561 672V532H493Q485 588 457.5 609.5Q430 631 373 629Q298 629 255 584.5Q212 540 199 443H422L408 380H194V314H396L382 251H199Q210 160 249 114.5Q288 69 370 69Q422 69 454.5 88Q487 107 508 136H568V53Q527 25 480 9Q433 -7 367 -7Q250 -7 175.5 57Q101 121 81 251H21Z" glyph-name="Euro" horiz-adv-x="593" unicode="&#8364;" /><glyph d="M16 64H58Q69 64 79 74.5Q89 85 89 96V601Q89 612 79 623Q69 634 58 634H16V700H552V508H480L467 629H205V376H338L347 461H416V218H347L338 307H205V64H295V0H16Z" glyph-name="F" horiz-adv-x="571" unicode="F" /><glyph d="M349 -7Q274 -7 214.5 16Q155 39 113 84.5Q71 130 48.5 196.5Q26 263 26 350Q26 437 51 503.5Q76 570 121 615.5Q166 661 228.5 684Q291 707 366 707Q422 707 453.5 697.5Q485 688 502 681Q507 681 511.5 685Q516 689 518 700H591V492H512L500 581Q476 600 444 614.5Q412 629 367 629Q320 629 280 613Q240 597 211 563.5Q182 530 165 478Q148 426 148 354Q148 211 201 140Q254 69 354 69Q402 69 431.5 78Q461 87 484 100V259H401V325H658V259H629Q617 259 607.5 248.5Q598 238 598 227V0H534Q534 8 528 18.5Q522 29 509 29Q486 19 448 6Q410 -7 349 -7Z" glyph-name="G" horiz-adv-x="672" unicode="G" /><glyph d="M16 64H58Q69 64 79 74.5Q89 85 89 96V601Q89 612 79 623Q69 634 58 634H16V700H294V634H205V393H520V634H431V700H710V634H668Q656 634 646 623Q636 612 636 601V96Q636 85 646 74.5Q656 64 668 64H710V0H431V64H520V325H205V64H294V0H16Z" glyph-name="H" horiz-adv-x="726" unicode="H" /><glyph d="M16 64H66Q78 64 87.5 74.5Q97 85 97 96V601Q97 612 87.5 623Q78 634 66 634H16V700H294V634H244Q232 634 222.5 623Q213 612 213 601V96Q213 85 222.5 74.5Q232 64 244 64H294V0H16Z" glyph-name="I" horiz-adv-x="310" unicode="I" /><glyph d="M16 64H66Q78 64 87.5 74.5Q97 85 97 96V601Q97 612 87.5 623Q78 634 66 634H16V700H294V634H244Q232 634 222.5 623Q213 612 213 601V96Q213 85 222.5 74.5Q232 64 244 64H294V0H16ZM166 869H274V830L180 736H120Z" glyph-name="Iacute" horiz-adv-x="310" unicode="&#205;" /><glyph d="M16 64H66Q78 64 87.5 74.5Q97 85 97 96V601Q97 612 87.5 623Q78 634 66 634H16V700H294V634H244Q232 634 222.5 623Q213 612 213 601V96Q213 85 222.5 74.5Q232 64 244 64H294V0H16ZM34 765 109 869H204L277 765V736H233L154 805L76 736H34Z" glyph-name="Icircumflex" horiz-adv-x="310" unicode="&#206;" /><glyph d="M16 64H66Q78 64 87.5 74.5Q97 85 97 96V601Q97 612 87.5 623Q78 634 66 634H16V700H294V634H244Q232 634 222.5 623Q213 612 213 601V96Q213 85 222.5 74.5Q232 64 244 64H294V0H16ZM70 748Q45 748 28 765Q11 782 11 806Q11 830 28 847Q45 864 70 864Q95 864 112 847Q129 830 129 806Q129 782 112 765Q95 748 70 748ZM242 748Q217 748 200 765Q183 782 183 806Q183 830 200 847Q217 864 242 864Q267 864 284 847Q301 830 301 806Q301 782 284 765Q267 748 242 748Z" glyph-name="Idieresis" horiz-adv-x="310" unicode="&#207;" /><glyph d="M16 64H66Q78 64 87.5 74.5Q97 85 97 96V601Q97 612 87.5 623Q78 634 66 634H16V700H294V634H244Q232 634 222.5 623Q213 612 213 601V96Q213 85 222.5 74.5Q232 64 244 64H294V0H16ZM40 830V869H148L194 736H134Z" glyph-name="Igrave" horiz-adv-x="310" unicode="&#204;" /><glyph d="M172 -7Q119 -7 82 3.5Q45 14 14 29V113H78Q91 95 112 82Q133 69 170 69Q221 69 243 94.5Q265 120 265 169V601Q265 612 256 623Q247 634 235 634H187V700H460V634H412Q401 634 391.5 623Q382 612 382 601V167Q382 79 331.5 36Q281 -7 172 -7Z" glyph-name="J" horiz-adv-x="476" unicode="J" /><glyph d="M16 64H58Q69 64 79 74.5Q89 85 89 96V601Q89 612 79 623Q69 634 58 634H16V700H286V634H205V325L446 580Q469 604 464.5 619Q460 634 434 634H416V700H660V634H631Q618 634 604.5 625Q591 616 576 601L386 411L598 96Q606 83 617.5 73.5Q629 64 643 64H670V0H488V60L306 331L205 229V64H286V0H16Z" glyph-name="K" horiz-adv-x="686" unicode="K" /><glyph d="M16 64H58Q69 64 79 74.5Q89 85 89 96V601Q89 612 79 623Q69 634 58 634H16V700H306V634H205V70H460L471 217H550V0H16Z" glyph-name="L" horiz-adv-x="567" unicode="L" /><glyph d="M14 292 89 323V601Q89 612 79 623Q69 634 58 634H16V700H306V634H205V371L405 454V383L205 300V70H460L471 217H550V0H16V64H58Q69 64 79 74.5Q89 85 89 96V252L14 221Z" glyph-name="Lslash" horiz-adv-x="567" unicode="&#321;" /><glyph d="M16 64H57Q69 64 78.5 74.5Q88 85 88 96V601Q88 612 78.5 623Q69 634 57 634H16V700H270L435 177H438L605 700H856V634H814Q802 634 792.5 623Q783 612 783 601V96Q783 85 792.5 74.5Q802 64 814 64H856V0H589V64H667V623H660L461 0H380L182 623H176V64H255V0H16Z" glyph-name="M" horiz-adv-x="872" unicode="M" /><glyph d="M16 64H58Q69 64 79 74.5Q89 85 89 96V601Q89 612 79 623Q69 634 58 634H16V700H212L533 189H536V634H448V700H695V634H654Q643 634 633.5 623Q624 612 624 601V0H524L180 544H176V64H266V0H16Z" glyph-name="N" horiz-adv-x="710" unicode="N" /><glyph d="M16 64H58Q69 64 79 74.5Q89 85 89 96V601Q89 612 79 623Q69 634 58 634H16V700H212L533 189H536V634H448V700H695V634H654Q643 634 633.5 623Q624 612 624 601V0H524L180 544H176V64H266V0H16ZM196 797Q207 820 228 837.5Q249 855 286 855Q303 855 321 850Q339 845 356 839Q373 833 388 828Q403 823 414 823Q431 823 441 832.5Q451 842 456 859H508V803Q497 780 476 762.5Q455 745 418 745Q401 745 383 750.5Q365 756 348 762.5Q331 769 316 774.5Q301 780 290 780Q273 780 263 769.5Q253 759 248 742H196Z" glyph-name="Ntilde" horiz-adv-x="710" unicode="&#209;" /><glyph d="M363 -7Q295 -7 234 16.5Q173 40 127 85Q81 130 54 196.5Q27 263 27 350Q27 437 54 503.5Q81 570 127 615Q173 660 234 683.5Q295 707 363 707Q431 707 492 683.5Q553 660 598.5 615Q644 570 671 503.5Q698 437 698 350Q698 263 671 196.5Q644 130 598.5 85Q553 40 492 16.5Q431 -7 363 -7ZM363 69Q409 69 448.5 86.5Q488 104 516.5 139Q545 174 561 226.5Q577 279 577 348Q577 418 561 470.5Q545 523 516.5 558Q488 593 448.5 610.5Q409 628 363 628Q316 628 277 610.5Q238 593 209 558Q180 523 164 470.5Q148 418 148 348Q148 279 164 226.5Q180 174 209 139Q238 104 277 86.5Q316 69 363 69Z" glyph-name="O" horiz-adv-x="725" unicode="O" /><glyph d="M391 0Q304 0 236 20Q168 40 121.5 82.5Q75 125 51 190.5Q27 256 27 348Q27 528 122.5 614Q218 700 394 700H925V514H852L840 629H580V392H708L716 475H786V240H716L708 323H580V70H849L861 198H936V0ZM394 629Q268 629 207.5 563.5Q147 498 147 348Q147 198 207.5 134Q268 70 394 70H465V629Z" glyph-name="OE" horiz-adv-x="957" unicode="&#338;" /><glyph d="M372 873H480V834L386 740H326ZM363 -7Q295 -7 234 16.5Q173 40 127 85Q81 130 54 196.5Q27 263 27 350Q27 437 54 503.5Q81 570 127 615Q173 660 234 683.5Q295 707 363 707Q431 707 492 683.5Q553 660 598.5 615Q644 570 671 503.5Q698 437 698 350Q698 263 671 196.5Q644 130 598.5 85Q553 40 492 16.5Q431 -7 363 -7ZM363 69Q409 69 448.5 86.5Q488 104 516.5 139Q545 174 561 226.5Q577 279 577 348Q577 418 561 470.5Q545 523 516.5 558Q488 593 448.5 610.5Q409 628 363 628Q316 628 277 610.5Q238 593 209 558Q180 523 164 470.5Q148 418 148 348Q148 279 164 226.5Q180 174 209 139Q238 104 277 86.5Q316 69 363 69Z" glyph-name="Oacute" horiz-adv-x="725" unicode="&#211;" /><glyph d="M240 769 315 873H410L483 769V740H439L360 809L282 740H240ZM363 -7Q295 -7 234 16.5Q173 40 127 85Q81 130 54 196.5Q27 263 27 350Q27 437 54 503.5Q81 570 127 615Q173 660 234 683.5Q295 707 363 707Q431 707 492 683.5Q553 660 598.5 615Q644 570 671 503.5Q698 437 698 350Q698 263 671 196.5Q644 130 598.5 85Q553 40 492 16.5Q431 -7 363 -7ZM363 69Q409 69 448.5 86.5Q488 104 516.5 139Q545 174 561 226.5Q577 279 577 348Q577 418 561 470.5Q545 523 516.5 558Q488 593 448.5 610.5Q409 628 363 628Q316 628 277 610.5Q238 593 209 558Q180 523 164 470.5Q148 418 148 348Q148 279 164 226.5Q180 174 209 139Q238 104 277 86.5Q316 69 363 69Z" glyph-name="Ocircumflex" horiz-adv-x="725" unicode="&#212;" /><glyph d="M276 752Q251 752 234 769Q217 786 217 810Q217 834 234 851Q251 868 276 868Q301 868 318 851Q335 834 335 810Q335 786 318 769Q301 752 276 752ZM448 752Q423 752 406 769Q389 786 389 810Q389 834 406 851Q423 868 448 868Q473 868 490 851Q507 834 507 810Q507 786 490 769Q473 752 448 752ZM363 -7Q295 -7 234 16.5Q173 40 127 85Q81 130 54 196.5Q27 263 27 350Q27 437 54 503.5Q81 570 127 615Q173 660 234 683.5Q295 707 363 707Q431 707 492 683.5Q553 660 598.5 615Q644 570 671 503.5Q698 437 698 350Q698 263 671 196.5Q644 130 598.5 85Q553 40 492 16.5Q431 -7 363 -7ZM363 69Q409 69 448.5 86.5Q488 104 516.5 139Q545 174 561 226.5Q577 279 577 348Q577 418 561 470.5Q545 523 516.5 558Q488 593 448.5 610.5Q409 628 363 628Q316 628 277 610.5Q238 593 209 558Q180 523 164 470.5Q148 418 148 348Q148 279 164 226.5Q180 174 209 139Q238 104 277 86.5Q316 69 363 69Z" glyph-name="Odieresis" horiz-adv-x="725" unicode="&#214;" /><glyph d="M363 -7Q295 -7 234 16.5Q173 40 127 85Q81 130 54 196.5Q27 263 27 350Q27 437 54 503.5Q81 570 127 615Q173 660 234 683.5Q295 707 363 707Q431 707 492 683.5Q553 660 598.5 615Q644 570 671 503.5Q698 437 698 350Q698 263 671 196.5Q644 130 598.5 85Q553 40 492 16.5Q431 -7 363 -7ZM363 69Q409 69 448.5 86.5Q488 104 516.5 139Q545 174 561 226.5Q577 279 577 348Q577 418 561 470.5Q545 523 516.5 558Q488 593 448.5 610.5Q409 628 363 628Q316 628 277 610.5Q238 593 209 558Q180 523 164 470.5Q148 418 148 348Q148 279 164 226.5Q180 174 209 139Q238 104 277 86.5Q316 69 363 69ZM245 834V873H353L399 740H339Z" glyph-name="Ograve" horiz-adv-x="725" unicode="&#210;" /><glyph d="M128 84Q81 129 54 195.5Q27 262 27 350Q27 437 54 503.5Q81 570 127 615Q173 660 234 683.5Q295 707 363 707Q466 707 547 655L596 721H677L598 615Q644 569 671 503Q698 437 698 350Q698 263 671 196.5Q644 130 598.5 85Q553 40 492 16.5Q431 -7 363 -7Q259 -7 178 44L125 -29H45ZM363 69Q409 69 448.5 86.5Q488 104 516.5 139Q545 174 561 226.5Q577 279 577 348Q577 405 566.5 450.5Q556 496 536 530L230 114Q282 69 363 69ZM148 348Q148 234 188 165L494 582Q442 628 363 628Q316 628 277 610.5Q238 593 209 558Q180 523 164 470.5Q148 418 148 348Z" glyph-name="Oslash" horiz-adv-x="725" unicode="&#216;" /><glyph d="M363 -7Q295 -7 234 16.5Q173 40 127 85Q81 130 54 196.5Q27 263 27 350Q27 437 54 503.5Q81 570 127 615Q173 660 234 683.5Q295 707 363 707Q431 707 492 683.5Q553 660 598.5 615Q644 570 671 503.5Q698 437 698 350Q698 263 671 196.5Q644 130 598.5 85Q553 40 492 16.5Q431 -7 363 -7ZM363 69Q409 69 448.5 86.5Q488 104 516.5 139Q545 174 561 226.5Q577 279 577 348Q577 418 561 470.5Q545 523 516.5 558Q488 593 448.5 610.5Q409 628 363 628Q316 628 277 610.5Q238 593 209 558Q180 523 164 470.5Q148 418 148 348Q148 279 164 226.5Q180 174 209 139Q238 104 277 86.5Q316 69 363 69ZM206 801Q217 824 238 841.5Q259 859 296 859Q313 859 331 854Q349 849 366 843Q383 837 398 832Q413 827 424 827Q441 827 451 836.5Q461 846 466 863H518V807Q507 784 486 766.5Q465 749 428 749Q411 749 393 754.5Q375 760 358 766.5Q341 773 326 778.5Q311 784 300 784Q283 784 273 773.5Q263 763 258 746H206Z" glyph-name="Otilde" horiz-adv-x="725" unicode="&#213;" /><glyph d="M16 64H58Q69 64 79 74.5Q89 85 89 96V601Q89 612 79 623Q69 634 58 634H16V700H302Q363 700 413 688Q463 676 498 650.5Q533 625 552 585Q571 545 571 488Q571 431 552.5 390.5Q534 350 498.5 324Q463 298 413 285.5Q363 273 300 273H205V64H294V0H16ZM300 344Q383 344 417.5 380Q452 416 452 487Q452 557 416.5 592.5Q381 628 300 628H205V344Z" glyph-name="P" horiz-adv-x="591" unicode="P" /><glyph d="M631 -124Q598 -71 534 -45Q470 -19 363 -9Q287 -2 225 22.5Q163 47 119 91Q75 135 51 199Q27 263 27 350Q27 437 54 503.5Q81 570 127 615Q173 660 234 683.5Q295 707 363 707Q431 707 492 683.5Q553 660 598.5 615Q644 570 671 503.5Q698 437 698 350Q698 286 683.5 235Q669 184 643 146Q617 108 581 82Q545 56 502 42V39Q550 33 585.5 23Q621 13 648 -0.5Q675 -14 694.5 -30Q714 -46 729 -64V-124ZM363 69Q409 69 448.5 86.5Q488 104 516.5 139Q545 174 561 226.5Q577 279 577 348Q577 418 561 470.5Q545 523 516.5 558Q488 593 448.5 610.5Q409 628 363 628Q316 628 277 610.5Q238 593 209 558Q180 523 164 470.5Q148 418 148 348Q148 279 164.5 226.5Q181 174 209.5 139Q238 104 277.5 86.5Q317 69 363 69Z" glyph-name="Q" horiz-adv-x="725" unicode="Q" /><glyph d="M16 64H58Q69 64 79 74.5Q89 85 89 96V601Q89 612 79 623Q69 634 58 634H16V700H302Q362 700 411 689Q460 678 494.5 655Q529 632 548 595Q567 558 567 507Q567 432 524.5 394.5Q482 357 410 343V340Q437 334 458 325Q479 316 496 298.5Q513 281 526.5 253.5Q540 226 551 184L576 91Q580 77 588.5 70.5Q597 64 605 64H639V0H475L436 189Q429 223 418 245.5Q407 268 390.5 281.5Q374 295 350 300.5Q326 306 292 306H205V64H294V0H16ZM300 375Q381 375 414.5 405.5Q448 436 448 500Q448 567 413 598.5Q378 630 300 630H205V375Z" glyph-name="R" horiz-adv-x="653" unicode="R" /><glyph d="M259 -7Q200 -7 166.5 4Q133 15 113 26Q108 26 104 18.5Q100 11 98 0H22V204H101L111 119Q137 93 169 79.5Q201 66 257 66Q317 66 353.5 94Q390 122 390 180Q390 216 377.5 237.5Q365 259 342.5 272.5Q320 286 288 294.5Q256 303 218 314Q172 327 137.5 343.5Q103 360 80 384Q57 408 45.5 440.5Q34 473 34 518Q34 565 50.5 600.5Q67 636 96.5 659.5Q126 683 167 695Q208 707 256 707Q283 707 303 704Q323 701 338 696.5Q353 692 363.5 687Q374 682 382 678Q387 678 391.5 685Q396 692 397 700H470V515H393L383 585Q364 603 335.5 618Q307 633 256 633Q201 633 167 609.5Q133 586 133 529Q133 498 144.5 479Q156 460 177 447Q198 434 227.5 425.5Q257 417 293 407Q343 393 381 377Q419 361 444.5 337.5Q470 314 482.5 280.5Q495 247 495 199Q495 98 435 45.5Q375 -7 259 -7Z" glyph-name="S" horiz-adv-x="521" unicode="S" /><glyph d="M381 843 305 740H211L138 843V873H182L260 804L339 873H381ZM259 -7Q200 -7 166.5 4Q133 15 113 26Q108 26 104 18.5Q100 11 98 0H22V204H101L111 119Q137 93 169 79.5Q201 66 257 66Q317 66 353.5 94Q390 122 390 180Q390 216 377.5 237.5Q365 259 342.5 272.5Q320 286 288 294.5Q256 303 218 314Q172 327 137.5 343.5Q103 360 80 384Q57 408 45.5 440.5Q34 473 34 518Q34 565 50.5 600.5Q67 636 96.5 659.5Q126 683 167 695Q208 707 256 707Q283 707 303 704Q323 701 338 696.5Q353 692 363.5 687Q374 682 382 678Q387 678 391.5 685Q396 692 397 700H470V515H393L383 585Q364 603 335.5 618Q307 633 256 633Q201 633 167 609.5Q133 586 133 529Q133 498 144.5 479Q156 460 177 447Q198 434 227.5 425.5Q257 417 293 407Q343 393 381 377Q419 361 444.5 337.5Q470 314 482.5 280.5Q495 247 495 199Q495 98 435 45.5Q375 -7 259 -7Z" glyph-name="Scaron" horiz-adv-x="521" unicode="&#352;" /><glyph d="M180 64H228Q240 64 249.5 74.5Q259 85 259 96V631H109L99 483H24V700H610V483H535L525 631H375V96Q375 85 384.5 74.5Q394 64 406 64H454V0H180Z" glyph-name="T" horiz-adv-x="634" unicode="T" /><glyph d="M16 64H58Q69 64 79 74.5Q89 85 89 96V601Q89 612 79 623Q69 634 58 634H16V700H291V634H205V544H313Q369 544 416.5 535Q464 526 498.5 504Q533 482 552.5 445.5Q572 409 572 355Q572 301 552.5 264.5Q533 228 498.5 205.5Q464 183 416 173.5Q368 164 310 164H205V64H296V0H16ZM310 235Q383 235 418 262.5Q453 290 453 353Q453 416 417 444Q381 472 310 472H205V235Z" glyph-name="Thorn" horiz-adv-x="592" unicode="&#222;" /><glyph d="M361 -7Q233 -7 160.5 56.5Q88 120 88 254V601Q88 612 78.5 623Q69 634 56 634H16V700H291V634H203V248Q203 195 215.5 161.5Q228 128 250.5 108Q273 88 304 80.5Q335 73 373 73Q410 73 441.5 80.5Q473 88 495 107.5Q517 127 529.5 161Q542 195 542 248V634H454V700H699V634H659Q648 634 638 623Q628 612 628 601V254Q628 120 561 56.5Q494 -7 361 -7Z" glyph-name="U" horiz-adv-x="715" unicode="U" /><glyph d="M383 869H491V830L397 736H337ZM361 -7Q233 -7 160.5 56.5Q88 120 88 254V601Q88 612 78.5 623Q69 634 56 634H16V700H291V634H203V248Q203 195 215.5 161.5Q228 128 250.5 108Q273 88 304 80.5Q335 73 373 73Q410 73 441.5 80.5Q473 88 495 107.5Q517 127 529.5 161Q542 195 542 248V634H454V700H699V634H659Q648 634 638 623Q628 612 628 601V254Q628 120 561 56.5Q494 -7 361 -7Z" glyph-name="Uacute" horiz-adv-x="715" unicode="&#218;" /><glyph d="M252 765 327 869H422L495 765V736H451L372 805L294 736H252ZM361 -7Q233 -7 160.5 56.5Q88 120 88 254V601Q88 612 78.5 623Q69 634 56 634H16V700H291V634H203V248Q203 195 215.5 161.5Q228 128 250.5 108Q273 88 304 80.5Q335 73 373 73Q410 73 441.5 80.5Q473 88 495 107.5Q517 127 529.5 161Q542 195 542 248V634H454V700H699V634H659Q648 634 638 623Q628 612 628 601V254Q628 120 561 56.5Q494 -7 361 -7Z" glyph-name="Ucircumflex" horiz-adv-x="715" unicode="&#219;" /><glyph d="M289 748Q264 748 247 765Q230 782 230 806Q230 830 247 847Q264 864 289 864Q314 864 331 847Q348 830 348 806Q348 782 331 765Q314 748 289 748ZM461 748Q436 748 419 765Q402 782 402 806Q402 830 419 847Q436 864 461 864Q486 864 503 847Q520 830 520 806Q520 782 503 765Q486 748 461 748ZM361 -7Q233 -7 160.5 56.5Q88 120 88 254V601Q88 612 78.5 623Q69 634 56 634H16V700H291V634H203V248Q203 195 215.5 161.5Q228 128 250.5 108Q273 88 304 80.5Q335 73 373 73Q410 73 441.5 80.5Q473 88 495 107.5Q517 127 529.5 161Q542 195 542 248V634H454V700H699V634H659Q648 634 638 623Q628 612 628 601V254Q628 120 561 56.5Q494 -7 361 -7Z" glyph-name="Udieresis" horiz-adv-x="715" unicode="&#220;" /><glyph d="M361 -7Q233 -7 160.5 56.5Q88 120 88 254V601Q88 612 78.5 623Q69 634 56 634H16V700H291V634H203V248Q203 195 215.5 161.5Q228 128 250.5 108Q273 88 304 80.5Q335 73 373 73Q410 73 441.5 80.5Q473 88 495 107.5Q517 127 529.5 161Q542 195 542 248V634H454V700H699V634H659Q648 634 638 623Q628 612 628 601V254Q628 120 561 56.5Q494 -7 361 -7ZM258 830V869H366L412 736H352Z" glyph-name="Ugrave" horiz-adv-x="715" unicode="&#217;" /><glyph d="M79 601Q74 614 63 624Q52 634 39 634H15V700H282V634H194L370 115H372L532 569Q555 634 499 634H456V700H701V634H679Q664 634 652 624Q640 614 635 599L417 0H292Z" glyph-name="V" horiz-adv-x="716" unicode="V" /><glyph d="M73 601Q68 615 57.5 624.5Q47 634 33 634H15V700H269L274 634H185L302 150H305L451 700H545L692 150H694L798 568Q819 634 762 634H723V700H961V634H944Q930 634 918 624Q906 614 901 598L744 0H619L487 498H485L350 0H225Z" glyph-name="W" horiz-adv-x="976" unicode="W" /><glyph d="M16 64H44Q55 64 67 70.5Q79 77 86 87L262 359L97 603Q76 634 52 634H16V700H282V634H212L358 416L457 580Q474 608 466 621Q458 634 438 634H410V700H649V634H610Q600 634 588 626Q576 618 570 608L408 350L580 95Q591 79 604 71.5Q617 64 628 64H649V0H386V64H465L311 296L197 113Q183 92 190 78Q197 64 217 64H254V0H16Z" glyph-name="X" horiz-adv-x="665" unicode="X" /><glyph d="M196 64H244Q256 64 265.5 74.5Q275 85 275 96V290L79 604Q71 617 60 625.5Q49 634 36 634H15V700H275V634H193L350 376H352L468 568Q487 600 476.5 617Q466 634 436 634H404V700H644V634H625Q611 634 600 625Q589 616 580 602L391 294V96Q391 85 400.5 74.5Q410 64 422 64H470V0H196Z" glyph-name="Y" horiz-adv-x="659" unicode="Y" /><glyph d="M196 64H244Q256 64 265.5 74.5Q275 85 275 96V290L79 604Q71 617 60 625.5Q49 634 36 634H15V700H275V634H193L350 376H352L468 568Q487 600 476.5 617Q466 634 436 634H404V700H644V634H625Q611 634 600 625Q589 616 580 602L391 294V96Q391 85 400.5 74.5Q410 64 422 64H470V0H196ZM347 869H455V830L361 736H301Z" glyph-name="Yacute" horiz-adv-x="659" unicode="&#221;" /><glyph d="M196 64H244Q256 64 265.5 74.5Q275 85 275 96V290L79 604Q71 617 60 625.5Q49 634 36 634H15V700H275V634H193L350 376H352L468 568Q487 600 476.5 617Q466 634 436 634H404V700H644V634H625Q611 634 600 625Q589 616 580 602L391 294V96Q391 85 400.5 74.5Q410 64 422 64H470V0H196ZM253 733Q228 733 211 750Q194 767 194 791Q194 815 211 832Q228 849 253 849Q278 849 295 832Q312 815 312 791Q312 767 295 750Q278 733 253 733ZM425 733Q400 733 383 750Q366 767 366 791Q366 815 383 832Q400 849 425 849Q450 849 467 832Q484 815 484 791Q484 767 467 750Q450 733 425 733Z" glyph-name="Ydieresis" horiz-adv-x="659" unicode="&#376;" /><glyph d="M16 79 414 626V629H128L115 515H43V700H537V619L139 72V70H445L457 196H532V0H16Z" glyph-name="Z" horiz-adv-x="553" unicode="Z" /><glyph d="M407 839 331 736H237L164 839V869H208L286 800L365 869H407ZM16 79 414 626V629H128L115 515H43V700H537V619L139 72V70H445L457 196H532V0H16Z" glyph-name="Zcaron" horiz-adv-x="553" unicode="&#381;" /><glyph d="M188 -6Q113 -6 65.5 33Q18 72 18 150Q18 190 33.5 220Q49 250 76.5 270Q104 290 142 299.5Q180 309 225 309Q260 309 288.5 305.5Q317 302 345 295V364Q345 415 317.5 435Q290 455 239 455Q187 455 155.5 440Q124 425 103 406H53V489Q87 506 136.5 518Q186 530 258 530Q304 530 340.5 522Q377 514 402 496Q427 478 440 448Q453 418 453 375V96Q453 81 462 72.5Q471 64 485 64H512V10Q501 3 483.5 -1.5Q466 -6 443 -6Q360 -6 348 65Q319 29 280 11.5Q241 -6 188 -6ZM222 63Q264 63 292.5 79Q321 95 345 121V235Q322 240 297.5 242.5Q273 245 247 245Q190 245 157.5 223.5Q125 202 125 153Q125 105 150.5 84Q176 63 222 63Z" glyph-name="a" horiz-adv-x="526" unicode="a" /><glyph d="M188 -6Q113 -6 65.5 33Q18 72 18 150Q18 190 33.5 220Q49 250 76.5 270Q104 290 142 299.5Q180 309 225 309Q260 309 288.5 305.5Q317 302 345 295V364Q345 415 317.5 435Q290 455 239 455Q187 455 155.5 440Q124 425 103 406H53V489Q87 506 136.5 518Q186 530 258 530Q304 530 340.5 522Q377 514 402 496Q427 478 440 448Q453 418 453 375V96Q453 81 462 72.5Q471 64 485 64H512V10Q501 3 483.5 -1.5Q466 -6 443 -6Q360 -6 348 65Q319 29 280 11.5Q241 -6 188 -6ZM222 63Q264 63 292.5 79Q321 95 345 121V235Q322 240 297.5 242.5Q273 245 247 245Q190 245 157.5 223.5Q125 202 125 153Q125 105 150.5 84Q176 63 222 63ZM256 700H364V661L270 567H210Z" glyph-name="aacute" horiz-adv-x="526" unicode="&#225;" /><glyph d="M188 -6Q113 -6 65.5 33Q18 72 18 150Q18 190 33.5 220Q49 250 76.5 270Q104 290 142 299.5Q180 309 225 309Q260 309 288.5 305.5Q317 302 345 295V364Q345 415 317.5 435Q290 455 239 455Q187 455 155.5 440Q124 425 103 406H53V489Q87 506 136.5 518Q186 530 258 530Q304 530 340.5 522Q377 514 402 496Q427 478 440 448Q453 418 453 375V96Q453 81 462 72.5Q471 64 485 64H512V10Q501 3 483.5 -1.5Q466 -6 443 -6Q360 -6 348 65Q319 29 280 11.5Q241 -6 188 -6ZM222 63Q264 63 292.5 79Q321 95 345 121V235Q322 240 297.5 242.5Q273 245 247 245Q190 245 157.5 223.5Q125 202 125 153Q125 105 150.5 84Q176 63 222 63ZM125 596 200 700H295L368 596V567H324L245 636L167 567H125Z" glyph-name="acircumflex" horiz-adv-x="526" unicode="&#226;" /><glyph d="M209 700H317V661L223 567H163Z" glyph-name="acute" horiz-adv-x="400" unicode="&#180;" /><glyph d="M188 -6Q113 -6 65.5 33Q18 72 18 150Q18 190 33.5 220Q49 250 76.5 270Q104 290 142 299.5Q180 309 225 309Q260 309 288.5 305.5Q317 302 345 295V364Q345 415 317.5 435Q290 455 239 455Q187 455 155.5 440Q124 425 103 406H53V489Q87 506 136.5 518Q186 530 258 530Q304 530 340.5 522Q377 514 402 496Q427 478 440 448Q453 418 453 375V96Q453 81 462 72.5Q471 64 485 64H512V10Q501 3 483.5 -1.5Q466 -6 443 -6Q360 -6 348 65Q319 29 280 11.5Q241 -6 188 -6ZM222 63Q264 63 292.5 79Q321 95 345 121V235Q322 240 297.5 242.5Q273 245 247 245Q190 245 157.5 223.5Q125 202 125 153Q125 105 150.5 84Q176 63 222 63ZM161 579Q136 579 119 596Q102 613 102 637Q102 661 119 678Q136 695 161 695Q186 695 203 678Q220 661 220 637Q220 613 203 596Q186 579 161 579ZM333 579Q308 579 291 596Q274 613 274 637Q274 661 291 678Q308 695 333 695Q358 695 375 678Q392 661 392 637Q392 613 375 596Q358 579 333 579Z" glyph-name="adieresis" horiz-adv-x="526" unicode="&#228;" /><glyph d="M188 -6Q113 -6 65.5 32.5Q18 71 18 149Q18 230 80 270Q142 310 244 310Q253 310 267.5 309.5Q282 309 297.5 308Q313 307 326.5 306Q340 305 346 304V364Q346 415 318 435Q290 455 241 455Q188 455 156 440Q124 425 103 406H53V489Q87 506 136.5 518Q186 530 258 530Q321 530 363 513.5Q405 497 422 451Q452 489 496 509.5Q540 530 597 530Q705 530 764 470Q823 410 823 279Q823 269 822.5 258.5Q822 248 821 240H456Q460 155 498 109Q536 63 614 63Q641 63 661 68Q681 73 696.5 81Q712 89 724 99.5Q736 110 745 122H807V48Q777 28 729.5 11Q682 -6 605 -6Q528 -6 474.5 20.5Q421 47 392 90Q368 61 344 42.5Q320 24 295.5 13Q271 2 244.5 -2Q218 -6 188 -6ZM222 63Q267 63 302 85Q337 107 363 145Q355 167 351 190Q347 213 346 240Q340 241 327 242Q314 243 299.5 243.5Q285 244 271.5 244.5Q258 245 250 245Q192 245 158.5 223Q125 201 125 153Q125 103 151 83Q177 63 222 63ZM714 306Q712 392 683 427.5Q654 463 597 463Q537 463 500.5 423.5Q464 384 457 306Z" glyph-name="ae" horiz-adv-x="843" unicode="&#230;" /><glyph d="M188 -6Q113 -6 65.5 33Q18 72 18 150Q18 190 33.5 220Q49 250 76.5 270Q104 290 142 299.5Q180 309 225 309Q260 309 288.5 305.5Q317 302 345 295V364Q345 415 317.5 435Q290 455 239 455Q187 455 155.5 440Q124 425 103 406H53V489Q87 506 136.5 518Q186 530 258 530Q304 530 340.5 522Q377 514 402 496Q427 478 440 448Q453 418 453 375V96Q453 81 462 72.5Q471 64 485 64H512V10Q501 3 483.5 -1.5Q466 -6 443 -6Q360 -6 348 65Q319 29 280 11.5Q241 -6 188 -6ZM222 63Q264 63 292.5 79Q321 95 345 121V235Q322 240 297.5 242.5Q273 245 247 245Q190 245 157.5 223.5Q125 202 125 153Q125 105 150.5 84Q176 63 222 63ZM130 661V700H238L284 567H224Z" glyph-name="agrave" horiz-adv-x="526" unicode="&#224;" /><glyph d="M272 -7Q151 -7 88 48Q25 103 25 193Q25 233 36.5 265Q48 297 68.5 322Q89 347 117 365.5Q145 384 177 398Q156 426 143 457Q130 488 130 534Q130 573 144 605Q158 637 184 659.5Q210 682 246 694.5Q282 707 327 707Q367 707 392.5 698Q418 689 428 684Q439 684 442 700H515V527H436L423 596Q408 609 387 618.5Q366 628 336 628Q291 628 267.5 603Q244 578 244 539Q244 501 264 472Q284 443 313 413L493 222Q522 278 534 351H479V415H681V351H650Q625 351 619 326Q608 280 591.5 239Q575 198 553 159L616 92Q630 78 640.5 71Q651 64 662 64H681V0H550L482 72Q444 35 392.5 14Q341 -7 272 -7ZM287 68Q332 68 367 84.5Q402 101 428 129L222 347Q189 328 166.5 294.5Q144 261 144 207Q144 179 152.5 153.5Q161 128 178 109Q195 90 222 79Q249 68 287 68Z" glyph-name="ampersand" horiz-adv-x="697" unicode="&amp;" /><glyph d="M188 -6Q113 -6 65.5 33Q18 72 18 150Q18 190 33.5 220Q49 250 76.5 270Q104 290 142 299.5Q180 309 225 309Q260 309 288.5 305.5Q317 302 345 295V364Q345 415 317.5 435Q290 455 239 455Q187 455 155.5 440Q124 425 103 406H53V489Q87 506 136.5 518Q186 530 258 530Q304 530 340.5 522Q377 514 402 496Q427 478 440 448Q453 418 453 375V96Q453 81 462 72.5Q471 64 485 64H512V10Q501 3 483.5 -1.5Q466 -6 443 -6Q360 -6 348 65Q319 29 280 11.5Q241 -6 188 -6ZM222 63Q264 63 292.5 79Q321 95 345 121V235Q322 240 297.5 242.5Q273 245 247 245Q190 245 157.5 223.5Q125 202 125 153Q125 105 150.5 84Q176 63 222 63ZM247 569Q207 569 177.5 594.5Q148 620 148 665Q148 710 177.5 735.5Q207 761 247 761Q287 761 316.5 735.5Q346 710 346 665Q346 620 316.5 594.5Q287 569 247 569ZM247 613Q269 613 283.5 627Q298 641 298 665Q298 690 283.5 704Q269 718 247 718Q225 718 211 704Q197 690 197 665Q197 641 211 627Q225 613 247 613Z" glyph-name="aring" horiz-adv-x="526" unicode="&#229;" /><glyph d="M25 516 145 700H227L348 516V489H278L188 613H185L94 489H25Z" glyph-name="asciicircum" horiz-adv-x="373" unicode="^" /><glyph d="M16 287Q28 310 51 328.5Q74 347 111 347Q128 347 146 342.5Q164 338 181.5 333Q199 328 214 323.5Q229 319 240 319Q258 319 267.5 328Q277 337 282 353H338V293Q326 270 303.5 250.5Q281 231 244 231Q227 231 209 236Q191 241 173.5 247Q156 253 141 258Q126 263 114 263Q97 263 87.5 253.5Q78 244 73 227H16Z" glyph-name="asciitilde" horiz-adv-x="355" unicode="~" /><glyph d="M137 406 174 520 92 431 47 424 20 470 50 505 169 531 50 557 20 593 47 639 92 631 174 541 137 657 153 700H207L222 657L185 541L268 631L312 639L339 593L310 557L190 531L310 505L339 470L313 424L268 431L185 520L222 406L207 363H153Z" glyph-name="asterisk" horiz-adv-x="359" unicode="*" /><glyph d="M629 123Q657 123 683 135.5Q709 148 728.5 174Q748 200 760 240.5Q772 281 772 337Q772 401 747.5 450.5Q723 500 680.5 534Q638 568 579.5 585.5Q521 603 452 603Q387 603 324.5 581Q262 559 213 514Q164 469 134 401.5Q104 334 104 243Q104 160 130 100.5Q156 41 201 3.5Q246 -34 306.5 -51.5Q367 -69 437 -69Q513 -69 574 -52Q635 -35 679 -6H720V-53Q672 -88 598 -108.5Q524 -129 437 -129Q359 -129 285 -107.5Q211 -86 153.5 -41Q96 4 61 74.5Q26 145 26 243Q26 345 64.5 424Q103 503 164.5 556Q226 609 302 636.5Q378 664 452 664Q529 664 600 642.5Q671 621 725 579.5Q779 538 811.5 477Q844 416 844 337Q844 267 824 216Q804 165 771.5 132Q739 99 697.5 83.5Q656 68 613 68Q551 68 524 87.5Q497 107 489 138Q464 111 431 89.5Q398 68 349 68Q290 68 258 101.5Q226 135 226 198Q226 258 246 305.5Q266 353 299 391Q328 424 368 443Q408 462 455 462Q494 462 517 451Q540 440 557 424Q570 436 585.5 446.5Q601 457 615 457H651L591 197Q587 182 586.5 168.5Q586 155 589.5 145Q593 135 602.5 129Q612 123 629 123ZM377 130Q410 130 437.5 148.5Q465 167 488 193L532 384Q521 390 506.5 394Q492 398 469 398Q438 398 414.5 384Q391 370 372 345Q352 318 339 280.5Q326 243 326 195Q326 160 340 145Q354 130 377 130Z" glyph-name="at" horiz-adv-x="869" unicode="@" /><glyph d="M188 -6Q113 -6 65.5 33Q18 72 18 150Q18 190 33.5 220Q49 250 76.5 270Q104 290 142 299.5Q180 309 225 309Q260 309 288.5 305.5Q317 302 345 295V364Q345 415 317.5 435Q290 455 239 455Q187 455 155.5 440Q124 425 103 406H53V489Q87 506 136.5 518Q186 530 258 530Q304 530 340.5 522Q377 514 402 496Q427 478 440 448Q453 418 453 375V96Q453 81 462 72.5Q471 64 485 64H512V10Q501 3 483.5 -1.5Q466 -6 443 -6Q360 -6 348 65Q319 29 280 11.5Q241 -6 188 -6ZM222 63Q264 63 292.5 79Q321 95 345 121V235Q322 240 297.5 242.5Q273 245 247 245Q190 245 157.5 223.5Q125 202 125 153Q125 105 150.5 84Q176 63 222 63ZM91 628Q102 651 123 668.5Q144 686 181 686Q198 686 216 681Q234 676 251 670Q268 664 283 659Q298 654 309 654Q326 654 336 663.5Q346 673 351 690H403V634Q392 611 371 593.5Q350 576 313 576Q296 576 278 581.5Q260 587 243 593.5Q226 600 211 605.5Q196 611 185 611Q168 611 158 600.5Q148 590 143 573H91Z" glyph-name="atilde" horiz-adv-x="526" unicode="&#227;" /><glyph d="M313 -6Q250 -6 212.5 11Q175 28 149 55Q142 30 129.5 15Q117 0 108 0H50V606Q50 615 41.5 624.5Q33 634 23 634H-19V700H138Q158 700 158 673V445Q189 479 232.5 504.5Q276 530 341 530Q378 530 414 517Q450 504 478.5 474Q507 444 524.5 394Q542 344 542 269Q542 192 522 139.5Q502 87 469.5 54.5Q437 22 396 8Q355 -6 313 -6ZM283 59Q310 59 336 67.5Q362 76 383 98.5Q404 121 417 160Q430 199 430 260Q430 318 418.5 355Q407 392 388 413.5Q369 435 344 443Q319 451 292 451Q254 451 219.5 433.5Q185 416 158 394V108Q181 85 210 72Q239 59 283 59Z" glyph-name="b" horiz-adv-x="565" unicode="b" /><glyph d="M326 -49H247L5 741H84Z" glyph-name="backslash" horiz-adv-x="328" unicode="\" /><glyph d="M39 741H116V-49H39Z" glyph-name="bar" horiz-adv-x="155" unicode="|" /><glyph d="M235 -49Q100 -49 100 73V263Q100 286 86.5 302.5Q73 319 41 319H16V386H41Q73 386 86.5 402Q100 418 100 442V619Q100 741 235 741H305V674H242Q222 674 209.5 660.5Q197 647 197 627V449Q197 410 179.5 387.5Q162 365 120 354V352Q162 341 179.5 318Q197 295 197 256V64Q197 43 209.5 29.5Q222 16 242 16H305V-49Z" glyph-name="braceleft" horiz-adv-x="321" unicode="{" /><glyph d="M16 -49V16H79Q99 16 111.5 29.5Q124 43 124 64V249Q124 288 141.5 311Q159 334 201 345V348Q159 359 141.5 381.5Q124 404 124 443V627Q124 647 111.5 660.5Q99 674 79 674H16V741H86Q221 741 221 619V436Q221 412 235 396Q249 380 280 380H305V313H280Q249 313 235 296.5Q221 280 221 257V73Q221 -49 86 -49Z" glyph-name="braceright" horiz-adv-x="321" unicode="}" /><glyph d="M31 741H234V674H128V16H234V-49H31Z" glyph-name="bracketleft" horiz-adv-x="251" unicode="[" /><glyph d="M220 -49H16V16H123V674H16V741H220Z" glyph-name="bracketright" horiz-adv-x="251" unicode="]" /><glyph d="M200 568Q173 568 151.5 575.5Q130 583 114.5 595.5Q99 608 89 623.5Q79 639 73 656V694H137Q142 668 158 654Q174 640 200 640Q227 640 242.5 654Q258 668 263 694H327V656Q321 639 311 623.5Q301 608 285.5 595.5Q270 583 248.5 575.5Q227 568 200 568Z" glyph-name="breve" horiz-adv-x="400" unicode="&#728;" /><glyph d="M39 309H116V-49H39ZM39 741H116V389H39Z" glyph-name="brokenbar" horiz-adv-x="155" unicode="&#166;" /><glyph d="M157 162Q130 162 106.5 170.5Q83 179 65.5 195.5Q48 212 38 235Q28 258 28 288Q28 318 38 341.5Q48 365 65.5 381.5Q83 398 106.5 407Q130 416 157 416Q212 416 249 382Q286 348 286 288Q286 228 249 195Q212 162 157 162Z" glyph-name="bullet" horiz-adv-x="314" unicode="&#8226;" /><glyph d="M285 -6Q153 -6 87 65Q21 136 21 261Q21 324 40.5 374Q60 424 95 458.5Q130 493 180 511.5Q230 530 291 530Q356 530 397.5 521.5Q439 513 465 502V392H396Q389 431 362 445.5Q335 460 289 460Q217 460 175.5 410.5Q134 361 134 260Q134 160 171.5 112Q209 64 287 64Q314 64 334.5 69.5Q355 75 370.5 83.5Q386 92 396.5 102.5Q407 113 415 124H470V46Q444 27 398.5 10.5Q353 -6 285 -6Z" glyph-name="c" horiz-adv-x="506" unicode="c" /><glyph d="M322 670 246 567H152L79 670V700H123L201 631L280 700H322Z" glyph-name="caron" horiz-adv-x="400" unicode="&#711;" /><glyph d="M264 -175Q238 -175 220 -170Q202 -165 186 -158V-110H215Q220 -117 230 -121.5Q240 -126 254 -126Q290 -126 290 -99Q290 -71 244 -71H226V-2Q137 11 87 65Q21 136 21 261Q21 324 40.5 374Q60 424 95 458.5Q130 493 180 511.5Q230 530 291 530Q356 530 397.5 521.5Q439 513 465 502V392H396Q389 431 362 445.5Q335 460 289 460Q217 460 175.5 410.5Q134 361 134 260Q134 160 171.5 112Q209 64 287 64Q314 64 334.5 69.5Q355 75 370.5 83.5Q386 92 396.5 102.5Q407 113 415 124H470V46Q444 27 398.5 10.5Q353 -6 285 -6H277V-31Q361 -34 361 -102Q361 -137 335 -156Q309 -175 264 -175Z" glyph-name="ccedilla" horiz-adv-x="506" unicode="&#231;" /><glyph d="M199 -175Q173 -175 155 -170Q137 -165 121 -158V-110H150Q155 -117 165 -121.5Q175 -126 189 -126Q225 -126 225 -99Q225 -71 179 -71H161V0H212V-31Q296 -34 296 -102Q296 -137 270 -156Q244 -175 199 -175Z" glyph-name="cedilla" horiz-adv-x="400" unicode="&#184;" /><glyph d="M317 587V530Q370 528 405.5 520.5Q441 513 465 502V391H400Q393 423 373 438Q353 453 317 457V66Q357 72 381 90Q405 108 419 127H470V48Q447 31 409 15Q371 -1 317 -4V-102H253V-5Q138 3 79.5 73Q21 143 21 261Q21 319 37.5 366Q54 413 84 447Q114 481 157 502Q200 523 253 528V587ZM132 260Q132 87 253 66V455Q196 444 164 395.5Q132 347 132 260Z" glyph-name="cent" horiz-adv-x="506" unicode="&#162;" /><glyph d="M78 596 153 700H248L321 596V567H277L198 636L120 567H78Z" glyph-name="circumflex" horiz-adv-x="400" unicode="&#710;" /><glyph d="M92 -5Q64 -5 45.5 13.5Q27 32 27 58Q27 84 45.5 103Q64 122 92 122Q119 122 138 103Q157 84 157 58Q157 32 138 13.5Q119 -5 92 -5ZM92 293Q64 293 45.5 311Q27 329 27 355Q27 382 45.5 400.5Q64 419 92 419Q119 419 138 400.5Q157 382 157 355Q157 329 138 311Q119 293 92 293Z" glyph-name="colon" horiz-adv-x="184" unicode=":" /><glyph d="M22 -53Q77 -42 77 -10Q77 2 69 6Q61 10 51 17Q39 25 32.5 36.5Q26 48 26 66Q26 90 44 106Q62 122 88 122Q116 122 137 103Q158 84 158 43Q158 -25 123.5 -60Q89 -95 22 -103Z" glyph-name="comma" horiz-adv-x="183" unicode="," /><glyph d="M378 -7Q307 -7 243 16.5Q179 40 131 85Q83 130 54.5 196.5Q26 263 26 350Q26 437 54.5 503.5Q83 570 131 615Q179 660 243 683.5Q307 707 378 707Q450 707 514 683.5Q578 660 626 615Q674 570 702.5 503.5Q731 437 731 350Q731 263 702.5 196.5Q674 130 626 85Q578 40 514 16.5Q450 -7 378 -7ZM378 30Q443 30 499.5 51Q556 72 597.5 113Q639 154 663 213.5Q687 273 687 350Q687 427 663 487Q639 547 597.5 587.5Q556 628 499.5 649Q443 670 378 670Q313 670 257 649Q201 628 159.5 587.5Q118 547 94 487Q70 427 70 350Q70 273 94 213.5Q118 154 159.5 113Q201 72 257 51Q313 30 378 30ZM385 155Q297 155 246 204Q195 253 195 350Q195 398 209 435Q223 472 248 497Q273 522 307.5 534.5Q342 547 382 547Q411 547 429 542Q447 537 461 531Q469 531 471 543H523V410H468L460 463Q447 474 432 482Q417 490 389 490Q346 490 315.5 458Q285 426 285 353Q285 211 391 211Q426 211 448.5 223.5Q471 236 486 256H527V200Q504 180 468.5 167.5Q433 155 385 155Z" glyph-name="copyright" horiz-adv-x="756" unicode="&#169;" /><glyph d="M241 -6Q201 -6 162 6.5Q123 19 92 49.5Q61 80 42 130.5Q23 181 23 256Q23 331 44 383Q65 435 98 468Q131 501 172 515.5Q213 530 252 530Q311 530 349 512Q387 494 413 468V634H337V700H501Q521 700 521 673V92Q521 82 529.5 73Q538 64 548 64H587V0H436Q427 0 421.5 14.5Q416 29 415 72Q387 40 344 17Q301 -6 241 -6ZM272 61Q320 61 353.5 81.5Q387 102 413 131V410Q388 430 358 442Q328 454 287 454Q258 454 230.5 445Q203 436 182 414Q161 392 148 354Q135 316 135 259Q135 199 147 160.5Q159 122 178.5 100Q198 78 222.5 69.5Q247 61 272 61Z" glyph-name="d" horiz-adv-x="601" unicode="d" /><glyph d="M158 243V337L200 457L57 418L20 440V505L57 527L201 488L164 599V657L182 700H254L272 657V599L236 488L380 527L417 505V440L380 418L236 457L279 338V245L241 -49H195Z" glyph-name="dagger" horiz-adv-x="437" unicode="&#8224;" /><glyph d="M164 -6V49L201 161L57 121L20 143V208L57 230L199 191L162 281V370L199 459L57 421L20 443V508L57 530L201 491L164 602V657L182 700H254L272 657V602L236 491L380 530L417 508V443L380 421L237 460L274 370V281L237 191L380 230L417 208V143L380 121L236 161L272 49V-6L254 -49H182Z" glyph-name="daggerdbl" horiz-adv-x="437" unicode="&#8225;" /><glyph d="M170 436Q141 436 116 445.5Q91 455 71.5 473Q52 491 41 516Q30 541 30 571Q30 602 41 627Q52 652 71.5 669.5Q91 687 116 696.5Q141 706 170 706Q198 706 223.5 696.5Q249 687 268 669.5Q287 652 298 627Q309 602 309 571Q309 541 298 516Q287 491 268 473Q249 455 223.5 445.5Q198 436 170 436ZM170 489Q202 489 224.5 512Q247 535 247 571Q247 609 224.5 631.5Q202 654 170 654Q137 654 115 631.5Q93 609 93 571Q93 535 115 512Q137 489 170 489Z" glyph-name="degree" horiz-adv-x="339" unicode="&#176;" /><glyph d="M114 579Q89 579 72 596Q55 613 55 637Q55 661 72 678Q89 695 114 695Q139 695 156 678Q173 661 173 637Q173 613 156 596Q139 579 114 579ZM286 579Q261 579 244 596Q227 613 227 637Q227 661 244 678Q261 695 286 695Q311 695 328 678Q345 661 345 637Q345 613 328 596Q311 579 286 579Z" glyph-name="dieresis" horiz-adv-x="400" unicode="&#168;" /><glyph d="M249 117Q221 117 203 135Q185 153 185 179Q185 205 203 223.5Q221 242 249 242Q275 242 293.5 223.5Q312 205 312 179Q312 153 293.5 135Q275 117 249 117ZM249 449Q221 449 203 467Q185 485 185 511Q185 537 203 555.5Q221 574 249 574Q275 574 293.5 555.5Q312 537 312 511Q312 485 293.5 467Q275 449 249 449ZM25 386H471V305H25Z" glyph-name="divide" horiz-adv-x="496" unicode="&#247;" /><glyph d="M22 170H90Q96 116 125.5 94.5Q155 73 221 67V314Q176 326 140 341Q104 356 78.5 379Q53 402 39.5 434.5Q26 467 26 514Q26 595 76 645.5Q126 696 221 704V764H285V706Q339 704 383 695.5Q427 687 463 674V538H396Q388 586 364 606Q340 626 285 633V402Q333 388 371.5 373Q410 358 436 336Q462 314 476 282.5Q490 251 490 204Q490 110 437 57Q384 4 285 -4V-102H221V-6Q163 -4 114.5 4Q66 12 22 25ZM386 188Q386 234 359.5 256.5Q333 279 285 295V70Q335 78 360.5 108.5Q386 139 386 188ZM123 528Q123 483 147 460Q171 437 221 421V632Q170 624 146.5 596.5Q123 569 123 528Z" glyph-name="dollar" horiz-adv-x="517" unicode="$" /><glyph d="M200 579Q174 579 156 596.5Q138 614 138 640Q138 666 156 683.5Q174 701 200 701Q226 701 244 683.5Q262 666 262 640Q262 614 244 596.5Q226 579 200 579Z" glyph-name="dotaccent" horiz-adv-x="400" unicode="&#729;" /><glyph d="M14 64H53Q63 64 71.5 72.5Q80 81 80 91V428Q80 437 72 446.5Q64 456 54 456H10V524H168Q179 524 183.5 514Q188 504 188 478V91Q188 80 196.5 72Q205 64 215 64H254V0H14Z" glyph-name="dotlessi" horiz-adv-x="268" unicode="&#305;" /><glyph d="M287 -6Q155 -6 88 65.5Q21 137 21 260Q21 322 39.5 372Q58 422 91.5 457Q125 492 172 511Q219 530 276 530Q386 530 447 469.5Q508 409 508 278Q508 267 507.5 257.5Q507 248 507 245H134Q140 63 295 63Q350 63 380 80Q410 97 430 122H492V48Q477 38 457.5 28Q438 18 413.5 10.5Q389 3 357.5 -1.5Q326 -6 287 -6ZM399 310Q396 393 364.5 428Q333 463 276 463Q216 463 180 425.5Q144 388 136 310Z" glyph-name="e" horiz-adv-x="528" unicode="e" /><glyph d="M280 700H388V661L294 567H234ZM287 -6Q155 -6 88 65.5Q21 137 21 260Q21 322 39.5 372Q58 422 91.5 457Q125 492 172 511Q219 530 276 530Q386 530 447 469.5Q508 409 508 278Q508 267 507.5 257.5Q507 248 507 245H134Q140 63 295 63Q350 63 380 80Q410 97 430 122H492V48Q477 38 457.5 28Q438 18 413.5 10.5Q389 3 357.5 -1.5Q326 -6 287 -6ZM399 310Q396 393 364.5 428Q333 463 276 463Q216 463 180 425.5Q144 388 136 310Z" glyph-name="eacute" horiz-adv-x="528" unicode="&#233;" /><glyph d="M149 596 224 700H319L392 596V567H348L269 636L191 567H149ZM287 -6Q155 -6 88 65.5Q21 137 21 260Q21 322 39.5 372Q58 422 91.5 457Q125 492 172 511Q219 530 276 530Q386 530 447 469.5Q508 409 508 278Q508 267 507.5 257.5Q507 248 507 245H134Q140 63 295 63Q350 63 380 80Q410 97 430 122H492V48Q477 38 457.5 28Q438 18 413.5 10.5Q389 3 357.5 -1.5Q326 -6 287 -6ZM399 310Q396 393 364.5 428Q333 463 276 463Q216 463 180 425.5Q144 388 136 310Z" glyph-name="ecircumflex" horiz-adv-x="528" unicode="&#234;" /><glyph d="M185 579Q160 579 143 596Q126 613 126 637Q126 661 143 678Q160 695 185 695Q210 695 227 678Q244 661 244 637Q244 613 227 596Q210 579 185 579ZM357 579Q332 579 315 596Q298 613 298 637Q298 661 315 678Q332 695 357 695Q382 695 399 678Q416 661 416 637Q416 613 399 596Q382 579 357 579ZM287 -6Q155 -6 88 65.5Q21 137 21 260Q21 322 39.5 372Q58 422 91.5 457Q125 492 172 511Q219 530 276 530Q386 530 447 469.5Q508 409 508 278Q508 267 507.5 257.5Q507 248 507 245H134Q140 63 295 63Q350 63 380 80Q410 97 430 122H492V48Q477 38 457.5 28Q438 18 413.5 10.5Q389 3 357.5 -1.5Q326 -6 287 -6ZM399 310Q396 393 364.5 428Q333 463 276 463Q216 463 180 425.5Q144 388 136 310Z" glyph-name="edieresis" horiz-adv-x="528" unicode="&#235;" /><glyph d="M287 -6Q155 -6 88 65.5Q21 137 21 260Q21 322 39.5 372Q58 422 91.5 457Q125 492 172 511Q219 530 276 530Q386 530 447 469.5Q508 409 508 278Q508 267 507.5 257.5Q507 248 507 245H134Q140 63 295 63Q350 63 380 80Q410 97 430 122H492V48Q477 38 457.5 28Q438 18 413.5 10.5Q389 3 357.5 -1.5Q326 -6 287 -6ZM399 310Q396 393 364.5 428Q333 463 276 463Q216 463 180 425.5Q144 388 136 310ZM154 661V700H262L308 567H248Z" glyph-name="egrave" horiz-adv-x="528" unicode="&#232;" /><glyph d="M287 -7Q159 -7 92 48Q25 103 25 196Q25 264 62.5 308Q100 352 171 373V376Q117 394 87 431Q57 468 57 525Q57 567 73.5 600.5Q90 634 120 657.5Q150 681 192.5 694Q235 707 287 707Q339 707 381.5 694Q424 681 454.5 657.5Q485 634 501.5 600.5Q518 567 518 525Q518 468 488 431Q458 394 402 376V373Q474 353 511.5 308.5Q549 264 549 196Q549 103 482 48Q415 -7 287 -7ZM287 68Q363 68 397.5 105.5Q432 143 432 201Q432 260 397 298.5Q362 337 287 337Q212 337 177 298.5Q142 260 142 201Q142 143 176.5 105.5Q211 68 287 68ZM287 410Q344 410 375 437.5Q406 465 406 519Q406 573 375 601.5Q344 630 287 630Q230 630 199.5 601.5Q169 573 169 519Q169 465 199.5 437.5Q230 410 287 410Z" glyph-name="eight" horiz-adv-x="574" unicode="8" /><glyph d="M446 -5Q419 -5 400.5 13.5Q382 32 382 58Q382 84 400.5 103Q419 122 446 122Q474 122 492.5 103Q511 84 511 58Q511 32 492.5 13.5Q474 -5 446 -5ZM269 -5Q241 -5 222.5 13.5Q204 32 204 58Q204 84 222.5 103Q241 122 269 122Q296 122 315 103Q334 84 334 58Q334 32 315 13.5Q296 -5 269 -5ZM91 -5Q63 -5 44.5 13.5Q26 32 26 58Q26 84 44.5 103Q63 122 91 122Q118 122 137 103Q156 84 156 58Q156 32 137 13.5Q118 -5 91 -5Z" glyph-name="ellipsis" horiz-adv-x="537" unicode="&#8230;" /><glyph d="M27 322H636V248H27Z" glyph-name="emdash" horiz-adv-x="664" unicode="&#8212;" /><glyph d="M27 322H379V248H27Z" glyph-name="endash" horiz-adv-x="407" unicode="&#8211;" /><glyph d="M26 259H461V178H26ZM26 451H461V370H26Z" glyph-name="equal" horiz-adv-x="487" unicode="=" /><glyph d="M377 635Q460 583 507.5 497Q555 411 555 284Q555 206 534.5 151Q514 96 478 61Q442 26 393.5 10Q345 -6 288 -6Q232 -6 183 12Q134 30 98 64Q62 98 41.5 146.5Q21 195 21 255Q21 315 40.5 363.5Q60 412 93.5 445.5Q127 479 172.5 497Q218 515 270 515Q325 515 360.5 496Q396 477 422 447Q402 492 374.5 523.5Q347 555 307 579L257 538H186V558L247 607Q227 615 209 620Q191 625 174 629V700H211Q237 695 265.5 686.5Q294 678 320 666L362 700H433V680ZM288 64Q322 64 351 76Q380 88 401 112Q422 136 433.5 171Q445 206 445 253Q445 347 401 396.5Q357 446 288 446Q254 446 225 434Q196 422 175 398Q154 374 142.5 338Q131 302 131 254Q131 207 142.5 171.5Q154 136 175 112Q196 88 225 76Q254 64 288 64Z" glyph-name="eth" horiz-adv-x="576" unicode="&#240;" /><glyph d="M34 634V700H151V634L124 180H61ZM92 -5Q65 -5 46 13.5Q27 32 27 58Q27 84 46 103Q65 122 92 122Q119 122 138 103Q157 84 157 58Q157 32 138 13.5Q119 -5 92 -5Z" glyph-name="exclam" horiz-adv-x="184" unicode="!" /><glyph d="M150 -8V-74H33V-8L60 446H123ZM92 631Q119 631 138 612.5Q157 594 157 568Q157 542 138 523Q119 504 92 504Q65 504 46 523Q27 542 27 568Q27 594 46 612.5Q65 631 92 631Z" glyph-name="exclamdown" horiz-adv-x="184" unicode="&#161;" /><glyph d="M14 64H51Q62 64 70.5 72.5Q79 81 79 91V456H10V524H79V569Q79 643 120.5 675.5Q162 708 232 708Q262 708 281.5 704.5Q301 701 314 696V634H264Q229 634 208 621.5Q187 609 187 566V524H297V456H187V91Q187 80 195.5 72Q204 64 214 64H265V0H14Z" glyph-name="f" horiz-adv-x="315" unicode="f" /><glyph d="M308 64H359V456H187V64H240V0H14V64H51Q62 64 70.5 72.5Q79 81 79 91V456H10V524H79V564Q79 638 119.5 670.5Q160 703 227 703Q259 703 278.5 699.5Q298 696 310 691V629H263Q228 629 207.5 616.5Q187 604 187 561V524H359V569Q359 643 400.5 675.5Q442 708 512 708Q542 708 561.5 704.5Q581 701 594 696V634H544Q509 634 488 621.5Q467 609 467 566V524H577V456H467V91Q467 80 475.5 72Q484 64 494 64H545V0H308Z" glyph-name="f_f" horiz-adv-x="595" unicode="&#64256;" /><glyph d="M359 456H187V64H240V0H14V64H51Q62 64 70.5 72.5Q79 81 79 91V456H10V524H79V564Q79 638 119.5 670.5Q160 703 227 703Q259 703 278.5 699.5Q298 696 310 691V629H263Q228 629 207.5 616.5Q187 604 187 561V524H359V569Q359 643 400.5 675.5Q442 708 512 708Q542 708 559.5 704.5Q577 701 590 696V634H543Q509 634 488 621.5Q467 609 467 566V524H726Q737 524 742 514Q747 504 747 478V91Q747 80 755.5 72Q764 64 774 64H813V0H588V64H639V456H467V64H520V0H308V64H359ZM690 579Q664 579 646 596.5Q628 614 628 640Q628 666 646 683.5Q664 701 690 701Q716 701 734 683.5Q752 666 752 640Q752 614 734 596.5Q716 579 690 579Z" glyph-name="f_f_i" horiz-adv-x="827" unicode="&#64259;" /><glyph d="M359 456H187V64H240V0H14V64H51Q62 64 70.5 72.5Q79 81 79 91V456H10V524H79V564Q79 638 119.5 670.5Q160 703 227 703Q259 703 278.5 699.5Q298 696 310 691V629H263Q228 629 207.5 616.5Q187 604 187 561V524H359V570Q359 642 402.5 675Q446 708 528 708Q557 708 579 706Q601 704 624 700H726Q747 700 747 673V91Q747 80 755.5 72Q764 64 774 64H813V0H588V64H639V634H557Q512 634 489.5 621.5Q467 609 467 566V524H576V456H467V64H520V0H308V64H359Z" glyph-name="f_f_l" horiz-adv-x="827" unicode="&#64260;" /><glyph d="M10 524H79V569Q79 643 120.5 675.5Q162 708 232 708Q262 708 279.5 704.5Q297 701 310 696V634H263Q229 634 208 621.5Q187 609 187 566V524H446Q457 524 462 514Q467 504 467 478V91Q467 80 475.5 72Q484 64 494 64H533V0H308V64H359V456H187V64H240V0H14V64H51Q62 64 70.5 72.5Q79 81 79 91V456H10ZM410 579Q384 579 366 596.5Q348 614 348 640Q348 666 366 683.5Q384 701 410 701Q436 701 454 683.5Q472 666 472 640Q472 614 454 596.5Q436 579 410 579Z" glyph-name="f_i" horiz-adv-x="547" unicode="&#64257;" /><glyph d="M10 524H79V570Q79 642 122.5 675Q166 708 248 708Q277 708 299 706Q321 704 344 700H446Q467 700 467 673V91Q467 80 475.5 72Q484 64 494 64H533V0H308V64H359V634H277Q232 634 209.5 621.5Q187 609 187 566V524H296V456H187V64H240V0H14V64H51Q62 64 70.5 72.5Q79 81 79 91V456H10Z" glyph-name="f_l" horiz-adv-x="547" unicode="&#64258;" /><glyph d="M218 -7Q151 -7 104 5Q57 17 18 34V152H85Q95 107 126.5 88Q158 69 216 69Q281 69 322.5 107Q364 145 364 222Q364 260 353.5 286.5Q343 313 325.5 330Q308 347 284.5 354.5Q261 362 235 362Q183 362 153 344.5Q123 327 106 307H35V700H455V546H380L370 614H120V396H123Q142 412 177 426Q212 440 266 440Q310 440 349 427.5Q388 415 417.5 389Q447 363 464.5 322.5Q482 282 482 226Q482 170 463 127Q444 84 409 54Q374 24 325.5 8.5Q277 -7 218 -7Z" glyph-name="five" horiz-adv-x="506" unicode="5" /><glyph d="M133 315Q95 315 68 322Q41 329 19 338V412H66Q76 370 130 370Q162 370 182 388.5Q202 407 202 442Q202 477 184 492.5Q166 508 141 508Q116 508 100.5 499Q85 490 77 480H28V700H269V605H217L211 640H88V535H90Q101 545 121 552Q141 559 167 559Q192 559 214 552.5Q236 546 252 532Q268 518 277 496Q286 474 286 443Q286 383 244 349Q202 315 133 315ZM561 729H635L142 -34H68ZM560 -5Q487 -5 447.5 25.5Q408 56 408 107Q408 144 429.5 168Q451 192 489 203V205Q458 213 441 233.5Q424 254 424 285Q424 331 462 358Q500 385 560 385Q620 385 658.5 358Q697 331 697 285Q697 225 633 205V203Q671 192 692.5 168Q714 144 714 107Q714 56 674 25.5Q634 -5 560 -5ZM560 49Q597 49 614.5 66.5Q632 84 632 112Q632 141 614.5 159.5Q597 178 560 178Q524 178 507.5 159.5Q491 141 491 112Q491 84 507.5 66.5Q524 49 560 49ZM560 226Q617 226 617 278Q617 330 560 330Q504 330 504 278Q504 226 560 226Z" glyph-name="fiveeighths" horiz-adv-x="738" unicode="&#8541;" /><glyph d="M32 437H104L120 570Q128 641 167.5 674.5Q207 708 276 708Q300 708 320 703.5Q340 699 353 694V634H307Q275 634 255.5 619Q236 604 231 566L215 437H315V363H206L169 47Q162 -5 135.5 -41.5Q109 -78 60 -95H7V-32Q27 -22 41 -5Q55 12 60 54L96 363H32Z" glyph-name="florin" horiz-adv-x="361" unicode="&#402;" /><glyph d="M302 64Q313 64 323 74.5Q333 85 333 96V173H16V264L340 700H445V248H525V173H445V96Q445 85 454.5 74.5Q464 64 475 64H525V0H252V64ZM93 248H333V571H329L93 252Z" glyph-name="four" horiz-adv-x="541" unicode="4" /><glyph d="M310 729H384L-109 -34H-183Z" glyph-name="fraction" horiz-adv-x="201" unicode="&#8260;" /><glyph d="M224 -172Q164 -172 122 -163Q80 -154 53.5 -137.5Q27 -121 15 -98Q3 -75 3 -48Q3 -25 10.5 -7Q18 11 30.5 25Q43 39 59.5 50Q76 61 94 70Q77 79 65 97Q53 115 53 141Q53 173 68 196Q83 219 106 238Q77 259 61 290.5Q45 322 45 362Q45 437 98 483.5Q151 530 245 530Q280 530 310 524H490V456H445Q437 456 430 451Q423 446 423 438Q446 406 446 362Q446 326 432 296Q418 266 392 244.5Q366 223 328.5 211.5Q291 200 245 200Q216 200 192 204.5Q168 209 148 217Q134 197 134 173Q134 136 183 136H330Q408 136 448.5 104.5Q489 73 489 6Q489 -33 474.5 -65.5Q460 -98 428.5 -121.5Q397 -145 346.5 -158.5Q296 -172 224 -172ZM229 -103Q312 -103 349.5 -78.5Q387 -54 387 -17Q387 14 368.5 28Q350 42 306 42H136Q119 28 110 12.5Q101 -3 101 -26Q101 -44 107 -58Q113 -72 127.5 -82Q142 -92 166.5 -97.5Q191 -103 229 -103ZM245 263Q294 263 320 289.5Q346 316 346 362Q346 409 320 436Q294 463 245 463Q197 463 171 436Q145 409 145 362Q145 316 171 289.5Q197 263 245 263Z" glyph-name="g" horiz-adv-x="506" unicode="g" /><glyph d="M414 -6Q367 -6 333.5 0Q300 6 273 17V124H334Q339 91 358 76Q377 61 415 61Q453 61 475.5 78.5Q498 96 498 133Q498 150 490.5 162Q483 174 469.5 183Q456 192 436 200.5Q416 209 392 218Q336 239 307.5 267.5Q279 296 279 339Q279 362 286 380Q293 398 304.5 413.5Q316 429 331.5 443Q347 457 364 472Q392 497 408 517.5Q424 538 424 567Q424 600 399 617.5Q374 635 327 635Q291 635 264.5 625Q238 615 220.5 597Q203 579 195 555Q187 531 187 504V64H234V0H14V64H52Q62 64 70.5 72.5Q79 81 79 91V456H10V524H79Q82 561 99 594.5Q116 628 147 653.5Q178 679 222.5 693.5Q267 708 325 708Q367 708 404 701Q441 694 469.5 677.5Q498 661 514.5 634.5Q531 608 531 570Q531 528 505.5 497.5Q480 467 442 440Q405 414 390 399Q375 384 375 365Q375 356 378 349.5Q381 343 389.5 336.5Q398 330 413.5 323Q429 316 454 306Q487 293 513.5 279.5Q540 266 558.5 248.5Q577 231 587 207.5Q597 184 597 150Q597 77 549.5 35.5Q502 -6 414 -6Z" glyph-name="germandbls" horiz-adv-x="618" unicode="&#223;" /><glyph d="M83 661V700H191L237 567H177Z" glyph-name="grave" horiz-adv-x="400" unicode="`" /><glyph d="M28 178 326 326V329L28 479V561H55L436 366V293L55 98H28Z" glyph-name="greater" horiz-adv-x="459" unicode="&gt;" /><glyph d="M33 230V289L181 477H241V437L128 262V260L241 84V43H181ZM226 230V289L374 477H434V437L321 262V260L434 84V43H374Z" glyph-name="guillemotleft" horiz-adv-x="465" unicode="&#171;" /><glyph d="M31 82 143 257V260L31 436V477H92L239 290V231L92 43H31ZM224 82 337 257V260L224 436V477H285L433 290V231L285 43H224Z" glyph-name="guillemotright" horiz-adv-x="465" unicode="&#187;" /><glyph d="M33 230V289L181 477H241V437L128 262V260L241 84V43H181Z" glyph-name="guilsinglleft" horiz-adv-x="272" unicode="&#8249;" /><glyph d="M31 82 143 257V260L31 436V477H92L239 290V231L92 43H31Z" glyph-name="guilsinglright" horiz-adv-x="272" unicode="&#8250;" /><glyph d="M188 64H261V0H14V64H53Q63 64 71.5 72.5Q80 81 80 91V606Q80 615 71.5 624.5Q63 634 53 634H11V700H168Q188 700 188 673V446Q227 482 280 506Q333 530 394 530Q422 530 447 524Q472 518 490.5 503.5Q509 489 520 464Q531 439 531 400V91Q531 80 539.5 72Q548 64 557 64H590V0H351V64H423V364Q423 413 402 429Q381 445 341 445Q299 445 260.5 430Q222 415 188 395Z" glyph-name="h" horiz-adv-x="604" unicode="h" /><glyph d="M125 700H216V661L152 567H92ZM270 700H361V661L297 567H237Z" glyph-name="hungarumlaut" horiz-adv-x="400" unicode="&#733;" /><glyph d="M27 339H237V256H27Z" glyph-name="hyphen" horiz-adv-x="265" unicode="-" /><glyph d="M14 64H53Q63 64 71.5 72.5Q80 81 80 91V428Q80 437 72 446.5Q64 456 54 456H10V524H168Q179 524 183.5 514Q188 504 188 478V91Q188 80 196.5 72Q205 64 215 64H254V0H14ZM131 579Q105 579 87 596.5Q69 614 69 640Q69 666 87 683.5Q105 701 131 701Q157 701 175 683.5Q193 666 193 640Q193 614 175 596.5Q157 579 131 579Z" glyph-name="i" horiz-adv-x="268" unicode="i" /><glyph d="M136 700H244V661L150 567H90ZM14 64H53Q63 64 71.5 72.5Q80 81 80 91V428Q80 437 72 446.5Q64 456 54 456H10V524H168Q179 524 183.5 514Q188 504 188 478V91Q188 80 196.5 72Q205 64 215 64H254V0H14Z" glyph-name="iacute" horiz-adv-x="268" unicode="&#237;" /><glyph d="M5 596 80 700H175L248 596V567H204L125 636L47 567H5ZM14 64H53Q63 64 71.5 72.5Q80 81 80 91V428Q80 437 72 446.5Q64 456 54 456H10V524H168Q179 524 183.5 514Q188 504 188 478V91Q188 80 196.5 72Q205 64 215 64H254V0H14Z" glyph-name="icircumflex" horiz-adv-x="268" unicode="&#238;" /><glyph d="M41 579Q16 579 -1 596Q-18 613 -18 637Q-18 661 -1 678Q16 695 41 695Q66 695 83 678Q100 661 100 637Q100 613 83 596Q66 579 41 579ZM213 579Q188 579 171 596Q154 613 154 637Q154 661 171 678Q188 695 213 695Q238 695 255 678Q272 661 272 637Q272 613 255 596Q238 579 213 579ZM14 64H53Q63 64 71.5 72.5Q80 81 80 91V428Q80 437 72 446.5Q64 456 54 456H10V524H168Q179 524 183.5 514Q188 504 188 478V91Q188 80 196.5 72Q205 64 215 64H254V0H14Z" glyph-name="idieresis" horiz-adv-x="268" unicode="&#239;" /><glyph d="M14 64H53Q63 64 71.5 72.5Q80 81 80 91V428Q80 437 72 446.5Q64 456 54 456H10V524H168Q179 524 183.5 514Q188 504 188 478V91Q188 80 196.5 72Q205 64 215 64H254V0H14ZM10 661V700H118L164 567H104Z" glyph-name="igrave" horiz-adv-x="268" unicode="&#236;" /><glyph d="M49 -168Q23 -168 5.5 -165Q-12 -162 -27 -157V-102H9Q49 -102 64.5 -84.5Q80 -67 80 -30V428Q80 437 72 446.5Q64 456 54 456H10V524H168Q179 524 183.5 514Q188 504 188 478V-35Q188 -108 152 -138Q116 -168 49 -168ZM131 579Q105 579 87 596.5Q69 614 69 640Q69 666 87 683.5Q105 701 131 701Q157 701 175 683.5Q193 666 193 640Q193 614 175 596.5Q157 579 131 579Z" glyph-name="j" horiz-adv-x="255" unicode="j" /><glyph d="M14 64H53Q63 64 71.5 72.5Q80 81 80 91V606Q80 615 71.5 624.5Q63 634 53 634H11V700H168Q188 700 188 673V250L354 419Q365 431 361.5 443.5Q358 456 344 456H320V524H537V456H511Q501 456 488.5 450Q476 444 467 435L337 305L483 95Q505 64 527 64H542V0H422L264 233L188 158V64H254V0H14Z" glyph-name="k" horiz-adv-x="554" unicode="k" /><glyph d="M14 64H52Q63 64 71.5 72.5Q80 81 80 91V606Q80 615 71.5 624.5Q63 634 52 634H11V700H168Q188 700 188 673V91Q188 80 196.5 72Q205 64 215 64H254V0H14Z" glyph-name="l" horiz-adv-x="268" unicode="l" /><glyph d="M24 293V366L404 561H432V481L133 332V330L432 179V98H404Z" glyph-name="less" horiz-adv-x="459" unicode="&lt;" /><glyph d="M14 344 80 388V606Q80 615 71.5 624.5Q63 634 52 634H11V700H168Q188 700 188 673V461L254 505V428L188 384V91Q188 80 196.5 72Q205 64 215 64H254V0H14V64H52Q63 64 71.5 72.5Q80 81 80 91V311L14 267Z" glyph-name="lslash" horiz-adv-x="268" unicode="&#322;" /><glyph d="M14 64H53Q63 64 71.5 72.5Q80 81 80 91V428Q80 437 71.5 446.5Q63 456 53 456H10V524H163Q174 524 181 510.5Q188 497 188 460V445Q225 478 273 504Q321 530 381 530Q403 530 423.5 526Q444 522 461 512Q478 502 490 485Q502 468 508 442Q548 477 596.5 503.5Q645 530 706 530Q731 530 755 524Q779 518 797 503.5Q815 489 826 464Q837 439 837 400V91Q837 80 845.5 72Q854 64 864 64H897V0H658V64H729V366Q729 414 710 429.5Q691 445 655 445Q617 445 581 430.5Q545 416 513 396V64H579V0H338V64H404V366Q404 414 385 429.5Q366 445 331 445Q293 445 257 431Q221 417 188 396V64H259V0H14Z" glyph-name="m" horiz-adv-x="910" unicode="m" /><glyph d="M326 595H74V667H326Z" glyph-name="macron" horiz-adv-x="400" unicode="&#175;" /><glyph d="M25 386H471V305H25Z" glyph-name="minus" horiz-adv-x="496" unicode="&#8722;" /><glyph d="M43 189 192 339 43 489 99 546 248 396 398 546 455 489 305 339 455 189 398 131 248 282 99 131Z" glyph-name="multiply" horiz-adv-x="497" unicode="&#215;" /><glyph d="M14 64H53Q63 64 71.5 72.5Q80 81 80 91V428Q80 437 71.5 446.5Q63 456 53 456H10V524H163Q174 524 181.5 511Q189 498 188 460V446Q227 482 280 506Q333 530 394 530Q422 530 447 524Q472 518 490.5 503.5Q509 489 520 464Q531 439 531 400V91Q531 80 539.5 72Q548 64 557 64H590V0H351V64H423V364Q423 413 402 429Q381 445 341 445Q299 445 260.5 430Q222 415 188 395V64H261V0H14Z" glyph-name="n" horiz-adv-x="604" unicode="n" /><glyph d="M277 707Q334 707 383.5 686.5Q433 666 469 624Q505 582 525.5 517.5Q546 453 546 365Q546 274 523 204.5Q500 135 457.5 88Q415 41 354.5 17Q294 -7 219 -7Q162 -7 123 0Q84 7 52 19V114H116Q124 105 133 96.5Q142 88 154.5 82Q167 76 184 72.5Q201 69 225 69Q282 69 320.5 91.5Q359 114 382.5 151.5Q406 189 416 238Q426 287 426 339Q396 307 348.5 285Q301 263 241 263Q196 263 156.5 276Q117 289 88 314.5Q59 340 42 379Q25 418 25 471Q25 524 43 567.5Q61 611 94 642Q127 673 173.5 690Q220 707 277 707ZM277 629Q207 629 174 587Q141 545 141 475Q141 405 177 373Q213 341 272 341Q323 341 362 360.5Q401 380 426 406Q421 525 383.5 577Q346 629 277 629Z" glyph-name="nine" horiz-adv-x="572" unicode="9" /><glyph glyph-name="nonbreakingspace" horiz-adv-x="166" unicode="&#160;" /><glyph glyph-name="nonmarkingreturn" horiz-adv-x="166" /><glyph d="M14 64H53Q63 64 71.5 72.5Q80 81 80 91V428Q80 437 71.5 446.5Q63 456 53 456H10V524H163Q174 524 181.5 511Q189 498 188 460V446Q227 482 280 506Q333 530 394 530Q422 530 447 524Q472 518 490.5 503.5Q509 489 520 464Q531 439 531 400V91Q531 80 539.5 72Q548 64 557 64H590V0H351V64H423V364Q423 413 402 429Q381 445 341 445Q299 445 260.5 430Q222 415 188 395V64H261V0H14ZM142 628Q153 651 174 668.5Q195 686 232 686Q249 686 267 681Q285 676 302 670Q319 664 334 659Q349 654 360 654Q377 654 387 663.5Q397 673 402 690H454V634Q443 611 422 593.5Q401 576 364 576Q347 576 329 581.5Q311 587 294 593.5Q277 600 262 605.5Q247 611 236 611Q219 611 209 600.5Q199 590 194 573H142Z" glyph-name="ntilde" horiz-adv-x="604" unicode="&#241;" /><glyph d="M48 505H136L165 700H237L208 505H313L342 700H414L385 505H460V417H372L356 308H431V220H343L312 0H240L271 220H166L135 0H63L94 220H19V308H107L123 417H48ZM179 308H284L300 417H195Z" glyph-name="numbersign" horiz-adv-x="479" unicode="#" /><glyph d="M288 -6Q232 -6 183 12Q134 30 98 64.5Q62 99 41.5 148.5Q21 198 21 260Q21 323 41.5 373Q62 423 98 458Q134 493 183 511.5Q232 530 288 530Q345 530 393.5 511.5Q442 493 478 458Q514 423 534.5 373Q555 323 555 260Q555 198 534.5 148.5Q514 99 478 64.5Q442 30 393.5 12Q345 -6 288 -6ZM288 64Q356 64 399.5 113.5Q443 163 443 259Q443 357 400 407Q357 457 288 457Q219 457 176 407Q133 357 133 259Q133 163 176.5 113.5Q220 64 288 64Z" glyph-name="o" horiz-adv-x="576" unicode="o" /><glyph d="M293 700H401V661L307 567H247ZM288 -6Q232 -6 183 12Q134 30 98 64.5Q62 99 41.5 148.5Q21 198 21 260Q21 323 41.5 373Q62 423 98 458Q134 493 183 511.5Q232 530 288 530Q345 530 393.5 511.5Q442 493 478 458Q514 423 534.5 373Q555 323 555 260Q555 198 534.5 148.5Q514 99 478 64.5Q442 30 393.5 12Q345 -6 288 -6ZM288 64Q356 64 399.5 113.5Q443 163 443 259Q443 357 400 407Q357 457 288 457Q219 457 176 407Q133 357 133 259Q133 163 176.5 113.5Q220 64 288 64Z" glyph-name="oacute" horiz-adv-x="576" unicode="&#243;" /><glyph d="M162 596 237 700H332L405 596V567H361L282 636L204 567H162ZM288 -6Q232 -6 183 12Q134 30 98 64.5Q62 99 41.5 148.5Q21 198 21 260Q21 323 41.5 373Q62 423 98 458Q134 493 183 511.5Q232 530 288 530Q345 530 393.5 511.5Q442 493 478 458Q514 423 534.5 373Q555 323 555 260Q555 198 534.5 148.5Q514 99 478 64.5Q442 30 393.5 12Q345 -6 288 -6ZM288 64Q356 64 399.5 113.5Q443 163 443 259Q443 357 400 407Q357 457 288 457Q219 457 176 407Q133 357 133 259Q133 163 176.5 113.5Q220 64 288 64Z" glyph-name="ocircumflex" horiz-adv-x="576" unicode="&#244;" /><glyph d="M198 579Q173 579 156 596Q139 613 139 637Q139 661 156 678Q173 695 198 695Q223 695 240 678Q257 661 257 637Q257 613 240 596Q223 579 198 579ZM370 579Q345 579 328 596Q311 613 311 637Q311 661 328 678Q345 695 370 695Q395 695 412 678Q429 661 429 637Q429 613 412 596Q395 579 370 579ZM288 -6Q232 -6 183 12Q134 30 98 64.5Q62 99 41.5 148.5Q21 198 21 260Q21 323 41.5 373Q62 423 98 458Q134 493 183 511.5Q232 530 288 530Q345 530 393.5 511.5Q442 493 478 458Q514 423 534.5 373Q555 323 555 260Q555 198 534.5 148.5Q514 99 478 64.5Q442 30 393.5 12Q345 -6 288 -6ZM288 64Q356 64 399.5 113.5Q443 163 443 259Q443 357 400 407Q357 457 288 457Q219 457 176 407Q133 357 133 259Q133 163 176.5 113.5Q220 64 288 64Z" glyph-name="odieresis" horiz-adv-x="576" unicode="&#246;" /><glyph d="M283 -6Q227 -6 179 12Q131 30 96 64.5Q61 99 41 148.5Q21 198 21 260Q21 323 41 373Q61 423 96 458Q131 493 179 511.5Q227 530 283 530Q354 530 407.5 500Q461 470 491 416Q519 470 568.5 500Q618 530 689 530Q801 530 859.5 470Q918 410 918 278Q918 267 918 260Q918 253 917 245H549Q555 63 709 63Q763 63 792 80.5Q821 98 840 122H902V48Q887 38 868.5 28Q850 18 826 10.5Q802 3 771 -1.5Q740 -6 701 -6Q620 -6 568 22.5Q516 51 489 104Q459 51 406 22.5Q353 -6 283 -6ZM284 64Q353 64 395.5 113Q438 162 438 259Q438 357 395.5 407Q353 457 284 457Q215 457 174 407Q133 357 133 259Q133 162 174 113Q215 64 284 64ZM689 463Q630 463 595 425.5Q560 388 552 310H809Q807 393 777 428Q747 463 689 463Z" glyph-name="oe" horiz-adv-x="938" unicode="&#339;" /><glyph d="M228 -165Q185 -165 160.5 -145.5Q136 -126 136 -93Q136 -76 142.5 -61.5Q149 -47 159.5 -35.5Q170 -24 182 -15Q194 -6 206 0H270Q250 -17 236 -33Q222 -49 222 -70Q222 -85 230.5 -93.5Q239 -102 261 -102H292V-150Q278 -157 263.5 -161Q249 -165 228 -165Z" glyph-name="ogonek" horiz-adv-x="400" unicode="&#731;" /><glyph d="M288 -6Q232 -6 183 12Q134 30 98 64.5Q62 99 41.5 148.5Q21 198 21 260Q21 323 41.5 373Q62 423 98 458Q134 493 183 511.5Q232 530 288 530Q345 530 393.5 511.5Q442 493 478 458Q514 423 534.5 373Q555 323 555 260Q555 198 534.5 148.5Q514 99 478 64.5Q442 30 393.5 12Q345 -6 288 -6ZM288 64Q356 64 399.5 113.5Q443 163 443 259Q443 357 400 407Q357 457 288 457Q219 457 176 407Q133 357 133 259Q133 163 176.5 113.5Q220 64 288 64ZM167 661V700H275L321 567H261Z" glyph-name="ograve" horiz-adv-x="576" unicode="&#242;" /><glyph d="M16 64H94Q106 64 115 74.5Q124 85 124 96V592L43 552H14V615L163 700H240V96Q240 85 249.5 74.5Q259 64 270 64H339V0H16Z" glyph-name="one" horiz-adv-x="355" unicode="1" /><glyph d="M18 368H70Q77 368 82.5 375Q88 382 88 388V627L38 599H16V652L114 700H175V388Q175 382 180.5 375Q186 368 193 368H241V320H18ZM559 729H633L140 -34H66ZM562 -5Q489 -5 449.5 25.5Q410 56 410 107Q410 144 431.5 168Q453 192 491 203V205Q460 213 443 233.5Q426 254 426 285Q426 331 464 358Q502 385 562 385Q622 385 660.5 358Q699 331 699 285Q699 225 635 205V203Q673 192 694.5 168Q716 144 716 107Q716 56 676 25.5Q636 -5 562 -5ZM562 49Q599 49 616.5 66.5Q634 84 634 112Q634 141 616.5 159.5Q599 178 562 178Q526 178 509.5 159.5Q493 141 493 112Q493 84 509.5 66.5Q526 49 562 49ZM562 226Q619 226 619 278Q619 330 562 330Q506 330 506 278Q506 226 562 226Z" glyph-name="oneeighth" horiz-adv-x="740" unicode="&#8539;" /><glyph d="M437 35Q437 60 445 81Q453 102 467 120Q481 138 499.5 152.5Q518 167 538 181Q554 192 569.5 202Q585 212 596.5 222.5Q608 233 615 245Q622 257 622 272Q622 326 564 326Q540 326 521 316.5Q502 307 495 280H449V364Q475 374 505 379.5Q535 385 573 385Q636 385 672.5 358Q709 331 709 277Q709 251 699.5 232Q690 213 674.5 198Q659 183 639.5 171Q620 159 601 148Q566 128 542 108.5Q518 89 513 62H644L650 105H703V0H437ZM18 368H70Q77 368 82.5 375Q88 382 88 388V627L38 599H16V652L114 700H175V388Q175 382 180.5 375Q186 368 193 368H241V320H18ZM563 729H637L144 -34H70Z" glyph-name="onehalf" horiz-adv-x="733" unicode="&#189;" /><glyph d="M489 48H519Q524 48 530.5 55Q537 62 537 68V99H360V160L539 380H619V150H666V99H619V68Q619 62 625 55Q631 48 638 48H666V0H489ZM417 150H538V300H536L417 153ZM18 368H70Q77 368 82.5 375Q88 382 88 388V627L38 599H16V652L114 700H175V388Q175 382 180.5 375Q186 368 193 368H241V320H18ZM572 729H646L153 -34H79Z" glyph-name="onequarter" horiz-adv-x="684" unicode="&#188;" /><glyph d="M15 368H67Q74 368 79.5 375Q85 382 85 388V627L35 599H13V652L111 700H172V388Q172 382 177.5 375Q183 368 190 368H238V320H15Z" glyph-name="onesuperior" horiz-adv-x="252" unicode="&#185;" /><glyph d="M18 368H70Q77 368 82.5 375Q88 382 88 388V627L38 599H16V652L114 700H175V388Q175 382 180.5 375Q186 368 193 368H241V320H18ZM559 729H633L140 -34H66ZM550 -5Q512 -5 484.5 1Q457 7 435 15V93H482Q489 70 504 60Q519 50 548 50Q580 50 598.5 65.5Q617 81 617 112Q617 141 598 153.5Q579 166 547 166H512V220H544Q576 220 594.5 233.5Q613 247 613 274Q613 327 555 327Q529 327 514 318.5Q499 310 492 287H447V364Q471 373 501 379Q531 385 564 385Q624 385 659.5 361Q695 337 695 287Q695 248 673 226.5Q651 205 616 197V194Q657 188 679.5 166Q702 144 702 106Q702 53 662 24Q622 -5 550 -5Z" glyph-name="onethird" horiz-adv-x="725" unicode="&#8531;" /><glyph d="M157 254Q94 254 54.5 286Q15 318 15 384Q15 453 63.5 486Q112 519 193 519Q219 519 241.5 517Q264 515 287 510V564Q287 604 265.5 620Q244 636 202 636Q159 636 133 624.5Q107 613 90 599H44V671Q74 685 116.5 696Q159 707 222 707Q301 707 345 677.5Q389 648 389 574V345Q389 332 396.5 324.5Q404 317 416 317H438V267Q427 262 411 257.5Q395 253 374 253Q337 253 317 269Q297 285 291 312Q265 285 232.5 269.5Q200 254 157 254ZM189 316Q222 316 245.5 329.5Q269 343 287 364V456Q250 464 210 464Q165 464 139.5 446Q114 428 114 389Q114 348 134 332Q154 316 189 316Z" glyph-name="ordfeminine" horiz-adv-x="448" unicode="&#170;" /><glyph d="M246 253Q198 253 156 268.5Q114 284 83.5 313Q53 342 35.5 383.5Q18 425 18 478Q18 531 35.5 573.5Q53 616 83.5 645.5Q114 675 156 691Q198 707 246 707Q294 707 335.5 691Q377 675 407 645.5Q437 616 454.5 573.5Q472 531 472 478Q472 425 454.5 383.5Q437 342 407 313Q377 284 335.5 268.5Q294 253 246 253ZM246 317Q301 317 335 357.5Q369 398 369 477Q369 558 335 598.5Q301 639 246 639Q190 639 155.5 598.5Q121 558 121 477Q121 398 155.5 357.5Q190 317 246 317Z" glyph-name="ordmasculine" horiz-adv-x="490" unicode="&#186;" /><glyph d="M288 -6Q210 -6 148 28L106 -27H35L102 61Q64 96 42.5 146Q21 196 21 260Q21 323 41.5 373Q62 423 98 458Q134 493 183 511.5Q232 530 288 530Q367 530 429 495L467 545H538L474 461Q512 426 533.5 375.5Q555 325 555 260Q555 198 534.5 148.5Q514 99 478 64.5Q442 30 393.5 12Q345 -6 288 -6ZM288 64Q322 64 350.5 76.5Q379 89 400 113.5Q421 138 432.5 174.5Q444 211 444 259Q444 298 437 329.5Q430 361 417 385L195 91Q231 64 288 64ZM132 259Q132 183 157 135L379 429Q342 458 288 458Q219 458 175.5 407.5Q132 357 132 259Z" glyph-name="oslash" horiz-adv-x="576" unicode="&#248;" /><glyph d="M288 -6Q232 -6 183 12Q134 30 98 64.5Q62 99 41.5 148.5Q21 198 21 260Q21 323 41.5 373Q62 423 98 458Q134 493 183 511.5Q232 530 288 530Q345 530 393.5 511.5Q442 493 478 458Q514 423 534.5 373Q555 323 555 260Q555 198 534.5 148.5Q514 99 478 64.5Q442 30 393.5 12Q345 -6 288 -6ZM288 64Q356 64 399.5 113.5Q443 163 443 259Q443 357 400 407Q357 457 288 457Q219 457 176 407Q133 357 133 259Q133 163 176.5 113.5Q220 64 288 64ZM128 628Q139 651 160 668.5Q181 686 218 686Q235 686 253 681Q271 676 288 670Q305 664 320 659Q335 654 346 654Q363 654 373 663.5Q383 673 388 690H440V634Q429 611 408 593.5Q387 576 350 576Q333 576 315 581.5Q297 587 280 593.5Q263 600 248 605.5Q233 611 222 611Q205 611 195 600.5Q185 590 180 573H128Z" glyph-name="otilde" horiz-adv-x="576" unicode="&#245;" /><glyph d="M14 -102H53Q63 -102 71.5 -93.5Q80 -85 80 -75V428Q80 437 71.5 446.5Q63 456 53 456H10V524H163Q174 524 180.5 512.5Q187 501 187 463V450Q217 481 260 505.5Q303 530 364 530Q401 530 437 516.5Q473 503 501.5 472.5Q530 442 547.5 392.5Q565 343 565 271Q565 197 545 146.5Q525 96 492.5 64.5Q460 33 419.5 19.5Q379 6 337 6Q283 6 248 19Q213 32 188 54V-102H266V-162H14ZM308 70Q334 70 360 78Q386 86 406.5 107Q427 128 440 165.5Q453 203 453 262Q453 319 441.5 355.5Q430 392 411 413.5Q392 435 367 443Q342 451 316 451Q279 451 246.5 434Q214 417 188 395V117Q211 96 238.5 83Q266 70 308 70Z" glyph-name="p" horiz-adv-x="588" unicode="p" /><glyph d="M257 318Q205 319 162 329.5Q119 340 87.5 362Q56 384 38.5 420Q21 456 21 509Q21 565 40 602Q59 639 92 660.5Q125 682 170.5 691Q216 700 269 700H538V634H496Q484 634 474.5 623Q465 612 465 601V-91H397V629H325V-91H257Z" glyph-name="paragraph" horiz-adv-x="554" unicode="&#182;" /><glyph d="M243 -49Q204 -37 164.5 -8.5Q125 20 93.5 68Q62 116 42.5 185.5Q23 255 23 351Q23 444 43 512Q63 580 94.5 626.5Q126 673 165.5 701Q205 729 243 741H281V682Q255 671 227 650Q199 629 175.5 591Q152 553 137 494.5Q122 436 122 351Q122 262 137 201.5Q152 141 175.5 101.5Q199 62 227 40.5Q255 19 281 8V-49Z" glyph-name="parenleft" horiz-adv-x="296" unicode="(" /><glyph d="M15 -49V8Q41 19 69 40.5Q97 62 120.5 101.5Q144 141 159 201.5Q174 262 174 351Q174 436 159 494.5Q144 553 120.5 591Q97 629 69 650Q41 671 15 682V741H53Q91 729 130.5 701Q170 673 201.5 626.5Q233 580 253 512Q273 444 273 351Q273 255 253 185.5Q233 116 201.5 68Q170 20 131 -8.5Q92 -37 53 -49Z" glyph-name="parenright" horiz-adv-x="296" unicode=")" /><glyph d="M186 405Q219 405 238 434Q257 463 257 524Q257 585 238 614.5Q219 644 186 644Q152 644 133 614.5Q114 585 114 524Q114 463 133 434Q152 405 186 405ZM186 343Q153 343 123 354.5Q93 366 70.5 388.5Q48 411 34.5 445Q21 479 21 525Q21 571 34.5 605Q48 639 70.5 661.5Q93 684 123 695.5Q153 707 186 707Q219 707 248.5 695.5Q278 684 300.5 661.5Q323 639 336.5 605Q350 571 350 525Q350 479 336.5 445Q323 411 300.5 388.5Q278 366 248.5 354.5Q219 343 186 343ZM588 729H668L175 -34H95ZM577 55Q610 55 629 84Q648 113 648 174Q648 235 629 264.5Q610 294 577 294Q543 294 524 264.5Q505 235 505 174Q505 113 524 84Q543 55 577 55ZM577 -7Q544 -7 514 4.5Q484 16 461.5 38.5Q439 61 425.5 95Q412 129 412 175Q412 221 425.5 255Q439 289 461.5 311.5Q484 334 514 345.5Q544 357 577 357Q610 357 639.5 345.5Q669 334 691.5 311.5Q714 289 727.5 255Q741 221 741 175Q741 129 727.5 95Q714 61 691.5 38.5Q669 16 639.5 4.5Q610 -7 577 -7Z" glyph-name="percent" horiz-adv-x="762" unicode="%" /><glyph d="M91 -5Q63 -5 44.5 13.5Q26 32 26 58Q26 84 44.5 103Q63 122 91 122Q118 122 137 103Q156 84 156 58Q156 32 137 13.5Q118 -5 91 -5Z" glyph-name="period" horiz-adv-x="182" unicode="." /><glyph d="M91 239Q63 239 44.5 257.5Q26 276 26 302Q26 329 44.5 347.5Q63 366 91 366Q118 366 137 347.5Q156 329 156 302Q156 276 137 257.5Q118 239 91 239Z" glyph-name="periodcentered" horiz-adv-x="182" unicode="&#183;" /><glyph d="M186 405Q219 405 238 434Q257 463 257 524Q257 585 238 614.5Q219 644 186 644Q152 644 133 614.5Q114 585 114 524Q114 463 133 434Q152 405 186 405ZM186 343Q153 343 123 354.5Q93 366 70.5 388.5Q48 411 34.5 445Q21 479 21 525Q21 571 34.5 605Q48 639 70.5 661.5Q93 684 123 695.5Q153 707 186 707Q219 707 248.5 695.5Q278 684 300.5 661.5Q323 639 336.5 605Q350 571 350 525Q350 479 336.5 445Q323 411 300.5 388.5Q278 366 248.5 354.5Q219 343 186 343ZM588 729H668L175 -34H95ZM577 55Q610 55 629 84Q648 113 648 174Q648 235 629 264.5Q610 294 577 294Q543 294 524 264.5Q505 235 505 174Q505 113 524 84Q543 55 577 55ZM577 -7Q544 -7 514 4.5Q484 16 461.5 38.5Q439 61 425.5 95Q412 129 412 175Q412 221 425.5 255Q439 289 461.5 311.5Q484 334 514 345.5Q544 357 577 357Q610 357 639.5 345.5Q669 334 691.5 311.5Q714 289 727.5 255Q741 221 741 175Q741 129 727.5 95Q714 61 691.5 38.5Q669 16 639.5 4.5Q610 -7 577 -7ZM939 55Q972 55 991 84Q1010 113 1010 174Q1010 235 991 264.5Q972 294 939 294Q905 294 886 264.5Q867 235 867 174Q867 113 886 84Q905 55 939 55ZM939 -7Q906 -7 876 4.5Q846 16 823.5 38.5Q801 61 787.5 95Q774 129 774 175Q774 221 787.5 255Q801 289 823.5 311.5Q846 334 876 345.5Q906 357 939 357Q972 357 1001.5 345.5Q1031 334 1053.5 311.5Q1076 289 1089.5 255Q1103 221 1103 175Q1103 129 1089.5 95Q1076 61 1053.5 38.5Q1031 16 1001.5 4.5Q972 -7 939 -7Z" glyph-name="perthousand" horiz-adv-x="1124" unicode="&#8240;" /><glyph d="M205 305H25V386H205V576H292V386H471V305H292V115H205Z" glyph-name="plus" horiz-adv-x="496" unicode="+" /><glyph d="M328 -102H406V74Q380 47 338.5 26.5Q297 6 240 6Q201 6 162 17.5Q123 29 92 58Q61 87 42 136Q23 185 23 259Q23 333 43.5 384.5Q64 436 96.5 468.5Q129 501 169.5 515.5Q210 530 249 530Q306 530 345 512Q384 494 410 465Q415 495 428 509.5Q441 524 452 524H515V-75Q515 -85 523.5 -93.5Q532 -102 542 -102H583V-162H328ZM272 73Q316 73 348.5 90Q381 107 406 132V412Q383 429 353 441.5Q323 454 287 454Q258 454 230.5 445Q203 436 182 414Q161 392 148 355Q135 318 135 261Q135 202 147 165.5Q159 129 178.5 108.5Q198 88 222.5 80.5Q247 73 272 73Z" glyph-name="q" horiz-adv-x="567" unicode="q" /><glyph d="M130 180Q125 211 126 236.5Q127 262 135 285.5Q143 309 158.5 332.5Q174 356 200 382Q213 395 229 411.5Q245 428 259 447Q273 466 282.5 488Q292 510 292 536Q292 581 269.5 605.5Q247 630 201 630Q156 630 128.5 613Q101 596 90 554H24V672Q43 680 62 686.5Q81 693 102.5 697.5Q124 702 149 704.5Q174 707 205 707Q300 707 356.5 664Q413 621 413 534Q413 502 404 476.5Q395 451 380 430Q365 409 344.5 390.5Q324 372 301 353Q275 331 255 312.5Q235 294 222 274Q209 254 203.5 231.5Q198 209 201 180ZM172 -5Q145 -5 126 13.5Q107 32 107 58Q107 84 126 103Q145 122 172 122Q199 122 218 103Q237 84 237 58Q237 32 218 13.5Q199 -5 172 -5Z" glyph-name="question" horiz-adv-x="435" unicode="?" /><glyph d="M305 447Q309 416 308.5 390.5Q308 365 300 341.5Q292 318 276 294.5Q260 271 235 245Q222 231 206 215Q190 199 175.5 180Q161 161 151.5 138.5Q142 116 142 91Q142 46 165 21.5Q188 -3 234 -3Q279 -3 306.5 14Q334 31 345 73H411V-45Q373 -61 332 -70.5Q291 -80 230 -80Q135 -80 78.5 -37Q22 6 22 93Q22 125 31 150.5Q40 176 55 197Q70 218 90.5 236.5Q111 255 134 274Q160 296 180 314.5Q200 333 213 353Q226 373 231.5 395.5Q237 418 234 447ZM263 632Q290 632 309 613.5Q328 595 328 569Q328 543 309 524Q290 505 263 505Q236 505 217 524Q198 543 198 569Q198 595 217 613.5Q236 632 263 632Z" glyph-name="questiondown" horiz-adv-x="435" unicode="&#191;" /><glyph d="M28 639V700H134V639L109 496H52ZM178 639V700H284V639L259 496H203Z" glyph-name="quotedbl" horiz-adv-x="312" unicode="&quot;" /><glyph d="M171 -40Q223 -32 223 -1Q223 11 215.5 14.5Q208 18 198 25Q187 33 181 43.5Q175 54 175 72Q175 95 191.5 109.5Q208 124 233 124Q259 124 279.5 106Q300 88 300 49Q300 -15 267.5 -48Q235 -81 171 -88ZM17 -40Q69 -32 69 -1Q69 11 61 14.5Q53 18 44 25Q33 33 27 43.5Q21 54 21 72Q21 95 37.5 109.5Q54 124 79 124Q105 124 125.5 106Q146 88 146 49Q146 -15 113.5 -48Q81 -81 17 -88Z" glyph-name="quotedblbase" horiz-adv-x="319" unicode="&#8222;" /><glyph d="M147 654Q95 646 95 615Q95 603 103 599.5Q111 596 121 589Q132 581 138 570.5Q144 560 144 542Q144 520 127 505Q110 490 85 490Q59 490 39 508.5Q19 527 19 565Q19 629 51.5 662.5Q84 696 147 703ZM302 654Q248 646 248 615Q248 603 256 599.5Q264 596 274 589Q285 581 291 570.5Q297 560 297 542Q297 520 280 505Q263 490 238 490Q212 490 192 508.5Q172 527 172 565Q172 629 205 662.5Q238 696 302 703Z" glyph-name="quotedblleft" horiz-adv-x="319" unicode="&#8220;" /><glyph d="M171 542Q223 550 223 581Q223 592 215.5 596Q208 600 198 607Q187 615 181 625.5Q175 636 175 653Q175 676 191.5 691Q208 706 233 706Q259 706 279.5 687.5Q300 669 300 631Q300 567 267.5 533.5Q235 500 171 493ZM17 542Q69 550 69 581Q69 592 61 596Q53 600 44 607Q33 615 27 625.5Q21 636 21 653Q21 676 37.5 691Q54 706 79 706Q105 706 125.5 687.5Q146 669 146 631Q146 567 113.5 533.5Q81 500 17 493Z" glyph-name="quotedblright" horiz-adv-x="319" unicode="&#8221;" /><glyph d="M148 654Q95 646 95 615Q95 603 103 599.5Q111 596 121 589Q132 581 138 570.5Q144 560 144 542Q144 520 127 505Q110 490 85 490Q59 490 39 508.5Q19 527 19 565Q19 629 52 662.5Q85 696 148 703Z" glyph-name="quoteleft" horiz-adv-x="165" unicode="&#8216;" /><glyph d="M17 542Q69 550 69 581Q69 592 61 596Q53 600 44 607Q33 615 27 625.5Q21 636 21 653Q21 676 37.5 691Q54 706 79 706Q105 706 125.5 687.5Q146 669 146 631Q146 567 113.5 533.5Q81 500 17 493Z" glyph-name="quoteright" horiz-adv-x="165" unicode="&#8217;" /><glyph d="M17 -40Q69 -32 69 -1Q69 11 61 14.5Q53 18 44 25Q33 33 27 43.5Q21 54 21 72Q21 95 37.5 109.5Q54 124 79 124Q105 124 125.5 106Q146 88 146 49Q146 -15 113.5 -48Q81 -81 17 -88Z" glyph-name="quotesinglbase" horiz-adv-x="165" unicode="&#8218;" /><glyph d="M28 639V700H134V639L109 496H52Z" glyph-name="quotesingle" horiz-adv-x="162" unicode="'" /><glyph d="M14 64H53Q63 64 71.5 72.5Q80 81 80 91V428Q80 437 71.5 446.5Q63 456 53 456H10V524H163Q174 524 181 510.5Q188 497 188 454V437Q202 455 218 471Q234 487 252.5 500Q271 513 294 520.5Q317 528 344 528Q353 528 360.5 527Q368 526 374 524V435H353Q293 435 255 421.5Q217 408 188 382V64H271V0H14Z" glyph-name="r" horiz-adv-x="391" unicode="r" /><glyph d="M197 350Q161 350 128 362Q95 374 70.5 397Q46 420 31 453.5Q16 487 16 529Q16 572 31 605Q46 638 70.5 661Q95 684 128 696Q161 708 197 708Q233 708 265.5 696Q298 684 323 661Q348 638 363 605Q378 572 378 529Q378 487 363 453.5Q348 420 323 397Q298 374 265.5 362Q233 350 197 350ZM197 380Q227 380 254 390Q281 400 300.5 418.5Q320 437 331.5 465Q343 493 343 529Q343 565 331.5 593Q320 621 300.5 639.5Q281 658 254 668Q227 678 197 678Q167 678 140.5 668Q114 658 94.5 639.5Q75 621 63.5 593Q52 565 52 529Q52 493 63.5 465Q75 437 94.5 418.5Q114 400 140.5 390Q167 380 197 380ZM116 470H126Q128 470 131 472.5Q134 475 134 478V585Q134 587 131 590Q128 593 126 593H116V620H202Q274 620 274 570Q274 539 238 529V528Q252 526 258.5 518.5Q265 511 270 492L275 476Q276 473 278.5 471.5Q281 470 283 470H290V444H233L224 492Q222 504 216.5 509.5Q211 515 199 515H182V470H202V444H116ZM181 541H199Q214 541 219.5 547.5Q225 554 225 567Q225 578 220 584.5Q215 591 199 591H181Z" glyph-name="registered" horiz-adv-x="395" unicode="&#174;" /><glyph d="M200 569Q160 569 130.5 594.5Q101 620 101 665Q101 710 130.5 735.5Q160 761 200 761Q240 761 269.5 735.5Q299 710 299 665Q299 620 269.5 594.5Q240 569 200 569ZM200 613Q222 613 236.5 627Q251 641 251 665Q251 690 236.5 704Q222 718 200 718Q178 718 164 704Q150 690 150 665Q150 641 164 627Q178 613 200 613Z" glyph-name="ring" horiz-adv-x="400" unicode="&#730;" /><glyph d="M203 -6Q132 -6 91 3.5Q50 13 21 24V133H86Q95 96 122 80Q149 64 202 64Q256 64 287 83.5Q318 103 318 144Q318 162 311 174.5Q304 187 289 195.5Q274 204 250 210Q226 216 193 221Q152 227 121.5 237Q91 247 70.5 265Q50 283 39.5 309.5Q29 336 29 375Q29 449 82 489.5Q135 530 229 530Q292 530 332 522.5Q372 515 401 504V400H338Q330 429 305 443.5Q280 458 225 458Q177 458 150 439.5Q123 421 123 389Q123 372 129 360Q135 348 148.5 339Q162 330 185 324Q208 318 242 313Q287 306 320 296Q353 286 375 268.5Q397 251 407.5 224.5Q418 198 418 159Q418 84 365 39Q312 -6 203 -6Z" glyph-name="s" horiz-adv-x="439" unicode="s" /><glyph d="M345 670 269 567H175L102 670V700H146L224 631L303 700H345ZM203 -6Q132 -6 91 3.5Q50 13 21 24V133H86Q95 96 122 80Q149 64 202 64Q256 64 287 83.5Q318 103 318 144Q318 162 311 174.5Q304 187 289 195.5Q274 204 250 210Q226 216 193 221Q152 227 121.5 237Q91 247 70.5 265Q50 283 39.5 309.5Q29 336 29 375Q29 449 82 489.5Q135 530 229 530Q292 530 332 522.5Q372 515 401 504V400H338Q330 429 305 443.5Q280 458 225 458Q177 458 150 439.5Q123 421 123 389Q123 372 129 360Q135 348 148.5 339Q162 330 185 324Q208 318 242 313Q287 306 320 296Q353 286 375 268.5Q397 251 407.5 224.5Q418 198 418 159Q418 84 365 39Q312 -6 203 -6Z" glyph-name="scaron" horiz-adv-x="439" unicode="&#353;" /><glyph d="M236 -132Q168 -132 125.5 -122.5Q83 -113 54 -102V16H123Q130 -28 156 -45Q182 -62 235 -62Q292 -62 318 -40.5Q344 -19 344 21Q344 42 336 55.5Q328 69 310.5 78.5Q293 88 264.5 96.5Q236 105 195 117Q112 141 67.5 179Q23 217 23 285Q23 341 54 373Q85 405 139 420Q106 440 90 469.5Q74 499 74 544Q74 619 126.5 663Q179 707 273 707Q306 707 331.5 704.5Q357 702 377 698.5Q397 695 413 690Q429 685 443 680V571H374Q367 609 343 622Q319 635 272 635Q221 635 196 614Q171 593 171 558Q171 540 177.5 526.5Q184 513 199 502Q214 491 239.5 482Q265 473 304 464Q350 453 386.5 438.5Q423 424 448 404Q473 384 486 356Q499 328 499 290Q499 237 468 203.5Q437 170 384 153Q416 133 433 105.5Q450 78 450 35Q450 -41 398 -86.5Q346 -132 236 -132ZM212 387Q163 378 141.5 357.5Q120 337 120 304Q120 287 126 273.5Q132 260 145.5 248.5Q159 237 182 227.5Q205 218 239 208L311 186Q350 194 374 215.5Q398 237 398 274Q398 313 363 335Q328 357 268 372Z" glyph-name="section" horiz-adv-x="522" unicode="&#167;" /><glyph d="M92 293Q64 293 45.5 311Q27 329 27 355Q27 382 45.5 400.5Q64 419 92 419Q119 419 138 400.5Q157 382 157 355Q157 329 138 311Q119 293 92 293ZM21 -53Q77 -42 77 -10Q77 2 69 6Q61 10 51 17Q39 25 32.5 36.5Q26 48 26 66Q26 90 44 106Q62 122 88 122Q116 122 137 103Q158 84 158 43Q158 -25 123.5 -60Q89 -95 21 -103Z" glyph-name="semicolon" horiz-adv-x="184" unicode=";" /><glyph d="M102 47 408 610V613H102L93 510H17V700H490V604L213 0H102Z" glyph-name="seven" horiz-adv-x="506" unicode="7" /><glyph d="M521 729H595L102 -34H28ZM530 -5Q457 -5 417.5 25.5Q378 56 378 107Q378 144 399.5 168Q421 192 459 203V205Q428 213 411 233.5Q394 254 394 285Q394 331 432 358Q470 385 530 385Q590 385 628.5 358Q667 331 667 285Q667 225 603 205V203Q641 192 662.5 168Q684 144 684 107Q684 56 644 25.5Q604 -5 530 -5ZM530 49Q567 49 584.5 66.5Q602 84 602 112Q602 141 584.5 159.5Q567 178 530 178Q494 178 477.5 159.5Q461 141 461 112Q461 84 477.5 66.5Q494 49 530 49ZM530 226Q587 226 587 278Q587 330 530 330Q474 330 474 278Q474 226 530 226ZM66 355 233 635V637H76L70 583H18V700H291V631L149 320H66Z" glyph-name="seveneighths" horiz-adv-x="708" unicode="&#8542;" /><glyph d="M296 -7Q239 -7 189.5 13.5Q140 34 104 76Q68 118 47.5 182.5Q27 247 27 335Q27 425 51 494Q75 563 119 610.5Q163 658 224 682.5Q285 707 360 707Q413 707 449 701Q485 695 511 687V594H447Q436 606 414.5 617.5Q393 629 353 629Q295 629 256 606Q217 583 193 545.5Q169 508 158.5 460Q148 412 147 361Q177 393 224.5 415Q272 437 332 437Q377 437 416.5 424Q456 411 485 385.5Q514 360 531 320.5Q548 281 548 229Q548 176 530 132.5Q512 89 479 58Q446 27 399.5 10Q353 -7 296 -7ZM296 68Q366 68 398.5 111.5Q431 155 431 225Q431 295 395.5 327Q360 359 301 359Q250 359 211 339.5Q172 320 147 294Q152 174 189.5 121Q227 68 296 68Z" glyph-name="six" horiz-adv-x="572" unicode="6" /><glyph d="M244 741H323L81 -49H2Z" glyph-name="slash" horiz-adv-x="328" unicode="/" /><glyph glyph-name="space" horiz-adv-x="166" unicode=" " /><glyph d="M141 -162Q188 -154 188 -132Q188 -123 181 -119Q174 -115 166 -110Q145 -98 145 -70Q145 -50 160 -37.5Q175 -25 198 -25Q224 -25 241.5 -40Q259 -55 259 -90Q259 -147 229 -174.5Q199 -202 141 -208Z" glyph-name="space_uni0326" horiz-adv-x="406" unicode="&#63171;" /><glyph d="M20 385H73Q65 419 59.5 451Q54 483 54 511Q54 559 71 595.5Q88 632 118.5 657Q149 682 191 694.5Q233 707 283 707Q344 707 387.5 697Q431 687 475 669V536H408Q398 589 370 609Q342 629 286 629Q173 629 173 514Q173 488 177 455.5Q181 423 187 385H363V313H197Q202 282 205 252.5Q208 223 208 194Q208 150 192 113Q238 99 292.5 93.5Q347 88 401 88L410 180H486V0H440Q346 0 273.5 11Q201 22 147 46Q130 30 110 19Q90 8 69 0H14V64Q58 73 84 101.5Q110 130 110 184Q110 214 104.5 246.5Q99 279 91 313H20Z" glyph-name="sterling" horiz-adv-x="506" unicode="&#163;" /><glyph d="M224 -7Q189 -7 161.5 -0.5Q134 6 115.5 21.5Q97 37 87 62Q77 87 77 124V456H10V524H77V665H185V524H304V456H185V136Q185 92 201.5 78Q218 64 258 64H311V6Q297 1 274.5 -3Q252 -7 224 -7Z" glyph-name="t" horiz-adv-x="326" unicode="t" /><glyph d="M-17 -102H22Q33 -102 41 -93.5Q49 -85 49 -75V606Q49 615 41 624.5Q33 634 22 634H-21V700H136Q157 700 157 673V451Q186 481 228.5 505.5Q271 530 330 530Q369 530 405.5 516.5Q442 503 470.5 472.5Q499 442 516.5 392.5Q534 343 534 271Q534 197 514 146.5Q494 96 461.5 64.5Q429 33 387.5 19.5Q346 6 303 6Q249 6 215 19.5Q181 33 157 54V-102H235V-162H-17ZM278 70Q303 70 329 78Q355 86 376 107Q397 128 410.5 165.5Q424 203 424 262Q424 319 412 355.5Q400 392 380.5 413.5Q361 435 336.5 443Q312 451 287 451Q247 451 215 433.5Q183 416 157 395V117Q179 97 206.5 83.5Q234 70 278 70Z" glyph-name="thorn" horiz-adv-x="557" unicode="&#254;" /><glyph d="M218 -7Q152 -7 104 3.5Q56 14 18 29V151H85Q94 108 127.5 88.5Q161 69 217 69Q285 69 322.5 102.5Q360 136 360 201Q360 266 322 293Q284 320 218 320H161V397H210Q279 397 316 425.5Q353 454 353 515Q353 571 325.5 600Q298 629 235 629Q184 629 150.5 611.5Q117 594 107 551H42V670Q87 687 136 697Q185 707 243 707Q350 707 408.5 663.5Q467 620 467 527Q467 456 428.5 417Q390 378 325 364V361Q479 335 479 195Q479 146 461 108.5Q443 71 409 45.5Q375 20 326.5 6.5Q278 -7 218 -7Z" glyph-name="three" horiz-adv-x="504" unicode="3" /><glyph d="M133 315Q95 315 67.5 321Q40 327 18 335V413H65Q72 390 87 380Q102 370 131 370Q163 370 181.5 385.5Q200 401 200 432Q200 461 181 473.5Q162 486 130 486H95V540H127Q159 540 177.5 553.5Q196 567 196 594Q196 647 138 647Q112 647 97 638.5Q82 630 75 607H30V684Q54 693 84 699Q114 705 147 705Q207 705 242.5 681Q278 657 278 607Q278 568 256 546.5Q234 525 199 517V514Q240 508 262.5 486Q285 464 285 426Q285 373 245 344Q205 315 133 315ZM565 729H639L146 -34H72ZM561 -5Q488 -5 448.5 25.5Q409 56 409 107Q409 144 430.5 168Q452 192 490 203V205Q459 213 442 233.5Q425 254 425 285Q425 331 463 358Q501 385 561 385Q621 385 659.5 358Q698 331 698 285Q698 225 634 205V203Q672 192 693.5 168Q715 144 715 107Q715 56 675 25.5Q635 -5 561 -5ZM561 49Q598 49 615.5 66.5Q633 84 633 112Q633 141 615.5 159.5Q598 178 561 178Q525 178 508.5 159.5Q492 141 492 112Q492 84 508.5 66.5Q525 49 561 49ZM561 226Q618 226 618 278Q618 330 561 330Q505 330 505 278Q505 226 561 226Z" glyph-name="threeeighths" horiz-adv-x="739" unicode="&#8540;" /><glyph d="M133 315Q95 315 67.5 321Q40 327 18 335V413H65Q72 390 87 380Q102 370 131 370Q163 370 181.5 385.5Q200 401 200 432Q200 461 181 473.5Q162 486 130 486H95V540H127Q159 540 177.5 553.5Q196 567 196 594Q196 647 138 647Q112 647 97 638.5Q82 630 75 607H30V684Q54 693 84 699Q114 705 147 705Q207 705 242.5 681Q278 657 278 607Q278 568 256 546.5Q234 525 199 517V514Q240 508 262.5 486Q285 464 285 426Q285 373 245 344Q205 315 133 315ZM496 48H526Q531 48 537.5 55Q544 62 544 68V99H367V160L546 380H626V150H673V99H626V68Q626 62 632 55Q638 48 645 48H673V0H496ZM424 150H545V300H543L424 153ZM576 729H650L157 -34H83Z" glyph-name="threequarters" horiz-adv-x="691" unicode="&#190;" /><glyph d="M130 315Q92 315 64.5 321Q37 327 15 335V413H62Q69 390 84 380Q99 370 128 370Q160 370 178.5 385.5Q197 401 197 432Q197 461 178 473.5Q159 486 127 486H92V540H124Q156 540 174.5 553.5Q193 567 193 594Q193 647 135 647Q109 647 94 638.5Q79 630 72 607H27V684Q51 693 81 699Q111 705 144 705Q204 705 239.5 681Q275 657 275 607Q275 568 253 546.5Q231 525 196 517V514Q237 508 259.5 486Q282 464 282 426Q282 373 242 344Q202 315 130 315Z" glyph-name="threesuperior" horiz-adv-x="302" unicode="&#179;" /><glyph d="M44 628Q55 651 76 668.5Q97 686 134 686Q151 686 169 681Q187 676 204 670Q221 664 236 659Q251 654 262 654Q279 654 289 663.5Q299 673 304 690H356V634Q345 611 324 593.5Q303 576 266 576Q249 576 231 581.5Q213 587 196 593.5Q179 600 164 605.5Q149 611 138 611Q121 611 111 600.5Q101 590 96 573H44Z" glyph-name="tilde" horiz-adv-x="400" unicode="&#732;" /><glyph d="M81 458H101Q106 458 110 462Q114 466 114 471V661H66L61 602H19V700H277V602H235L229 661H181V471Q181 466 185 462Q189 458 194 458H215V423H81ZM296 458H315Q320 458 324 462Q328 466 328 471V651Q328 655 324 659Q320 663 315 663H296V700H424L482 521H483L542 700H669V663H649Q645 663 641.5 659Q638 655 638 651V471Q638 466 641.5 462Q645 458 649 458H669V423H542V458H572V651H570L495 423H452L378 651H377V458H406V423H296Z" glyph-name="trademark" horiz-adv-x="685" unicode="&#8482;" /><glyph d="M22 53Q22 102 38 141Q54 180 80.5 212.5Q107 245 142 272Q177 299 215 325Q249 349 278.5 369.5Q308 390 329 411.5Q350 433 362 457.5Q374 482 374 513Q374 567 346 598Q318 629 257 629Q197 629 164.5 608Q132 587 122 536H54V669Q99 686 150.5 696.5Q202 707 261 707Q373 707 433.5 659Q494 611 494 514Q494 467 476 431Q458 395 428.5 366Q399 337 361.5 313Q324 289 285 265Q254 247 225.5 227Q197 207 175 185Q153 163 139 138.5Q125 114 123 86H396L406 179H482V0H22Z" glyph-name="two" horiz-adv-x="518" unicode="2" /><glyph d="M19 355Q19 380 27 401Q35 422 49 440Q63 458 81.5 472.5Q100 487 120 501Q136 512 151.5 522Q167 532 178.5 542.5Q190 553 197 565Q204 577 204 592Q204 646 146 646Q122 646 103 636.5Q84 627 77 600H31V684Q57 694 87 699.5Q117 705 155 705Q218 705 254.5 678Q291 651 291 597Q291 571 281.5 552Q272 533 256.5 518Q241 503 221.5 491Q202 479 183 468Q148 448 124 428.5Q100 409 95 382H226L232 425H285V320H19Z" glyph-name="twosuperior" horiz-adv-x="312" unicode="&#178;" /><glyph d="M22 355Q22 380 30 401Q38 422 52 440Q66 458 84.5 472.5Q103 487 123 501Q139 512 154.5 522Q170 532 181.5 542.5Q193 553 200 565Q207 577 207 592Q207 646 149 646Q125 646 106 636.5Q87 627 80 600H34V684Q60 694 90 699.5Q120 705 158 705Q221 705 257.5 678Q294 651 294 597Q294 571 284.5 552Q275 533 259.5 518Q244 503 224.5 491Q205 479 186 468Q151 448 127 428.5Q103 409 98 382H229L235 425H288V320H22ZM603 729H677L184 -34H110ZM591 -5Q553 -5 525.5 1Q498 7 476 15V93H523Q530 70 545 60Q560 50 589 50Q621 50 639.5 65.5Q658 81 658 112Q658 141 639 153.5Q620 166 588 166H553V220H585Q617 220 635.5 233.5Q654 247 654 274Q654 327 596 327Q570 327 555 318.5Q540 310 533 287H488V364Q512 373 542 379Q572 385 605 385Q665 385 700.5 361Q736 337 736 287Q736 248 714 226.5Q692 205 657 197V194Q698 188 720.5 166Q743 144 743 106Q743 53 703 24Q663 -5 591 -5Z" glyph-name="twothirds" horiz-adv-x="766" unicode="&#8532;" /><glyph d="M216 -7Q189 -7 163.5 -1Q138 5 118.5 20Q99 35 87.5 60Q76 85 76 123V429Q76 439 67.5 447.5Q59 456 49 456H10V524H184V157Q184 106 207.5 89Q231 72 268 72Q309 72 347 87.5Q385 103 417 124V456H342V524H525V92Q525 82 533.5 73Q542 64 553 64H593V0H442Q431 0 424.5 12Q418 24 418 61V74Q377 38 328.5 15.5Q280 -7 216 -7Z" glyph-name="u" horiz-adv-x="607" unicode="u" /><glyph d="M287 700H395V661L301 567H241ZM216 -7Q189 -7 163.5 -1Q138 5 118.5 20Q99 35 87.5 60Q76 85 76 123V429Q76 439 67.5 447.5Q59 456 49 456H10V524H184V157Q184 106 207.5 89Q231 72 268 72Q309 72 347 87.5Q385 103 417 124V456H342V524H525V92Q525 82 533.5 73Q542 64 553 64H593V0H442Q431 0 424.5 12Q418 24 418 61V74Q377 38 328.5 15.5Q280 -7 216 -7Z" glyph-name="uacute" horiz-adv-x="607" unicode="&#250;" /><glyph d="M156 596 231 700H326L399 596V567H355L276 636L198 567H156ZM216 -7Q189 -7 163.5 -1Q138 5 118.5 20Q99 35 87.5 60Q76 85 76 123V429Q76 439 67.5 447.5Q59 456 49 456H10V524H184V157Q184 106 207.5 89Q231 72 268 72Q309 72 347 87.5Q385 103 417 124V456H342V524H525V92Q525 82 533.5 73Q542 64 553 64H593V0H442Q431 0 424.5 12Q418 24 418 61V74Q377 38 328.5 15.5Q280 -7 216 -7Z" glyph-name="ucircumflex" horiz-adv-x="607" unicode="&#251;" /><glyph d="M192 579Q167 579 150 596Q133 613 133 637Q133 661 150 678Q167 695 192 695Q217 695 234 678Q251 661 251 637Q251 613 234 596Q217 579 192 579ZM364 579Q339 579 322 596Q305 613 305 637Q305 661 322 678Q339 695 364 695Q389 695 406 678Q423 661 423 637Q423 613 406 596Q389 579 364 579ZM216 -7Q189 -7 163.5 -1Q138 5 118.5 20Q99 35 87.5 60Q76 85 76 123V429Q76 439 67.5 447.5Q59 456 49 456H10V524H184V157Q184 106 207.5 89Q231 72 268 72Q309 72 347 87.5Q385 103 417 124V456H342V524H525V92Q525 82 533.5 73Q542 64 553 64H593V0H442Q431 0 424.5 12Q418 24 418 61V74Q377 38 328.5 15.5Q280 -7 216 -7Z" glyph-name="udieresis" horiz-adv-x="607" unicode="&#252;" /><glyph d="M216 -7Q189 -7 163.5 -1Q138 5 118.5 20Q99 35 87.5 60Q76 85 76 123V429Q76 439 67.5 447.5Q59 456 49 456H10V524H184V157Q184 106 207.5 89Q231 72 268 72Q309 72 347 87.5Q385 103 417 124V456H342V524H525V92Q525 82 533.5 73Q542 64 553 64H593V0H442Q431 0 424.5 12Q418 24 418 61V74Q377 38 328.5 15.5Q280 -7 216 -7ZM161 661V700H269L315 567H255Z" glyph-name="ugrave" horiz-adv-x="607" unicode="&#249;" /><glyph d="M-2 -97H357V-162H-2Z" glyph-name="underscore" horiz-adv-x="355" unicode="_" /><glyph d="M27 339H237V256H27Z" glyph-name="uni00AD" horiz-adv-x="265" unicode="&#173;" /><glyph glyph-name="uni2009" horiz-adv-x="99" unicode="&#8201;" /><glyph d="M67 424Q61 438 51.5 447Q42 456 30 456H10V524H241V456H167L297 105H299L410 398Q419 423 415 439.5Q411 456 383 456H357V524H567V456H549Q522 456 508 423L336 0H237Z" glyph-name="v" horiz-adv-x="585" unicode="v" /><glyph d="M68 424Q63 438 53 447Q43 456 31 456H10V524H228V456H168L256 133H258L371 524H464L577 133H579L652 398Q660 427 653 441.5Q646 456 620 456H595V524H803V456H784Q770 456 759 448Q748 440 743 423L620 0H518L406 383H404L291 0H189Z" glyph-name="w" horiz-adv-x="821" unicode="w" /><glyph d="M16 64H36Q47 64 59 70Q71 76 78 85L211 261L82 425Q71 439 60 447.5Q49 456 38 456H12V524H251V456H190L298 312L375 420Q385 434 381.5 445Q378 456 361 456H336V524H531V456H512Q502 456 491 449.5Q480 443 473 434L346 266L480 95Q503 64 528 64H539V0H307V64H373L258 217L182 108Q169 89 172.5 76.5Q176 64 195 64H215V0H16Z" glyph-name="x" horiz-adv-x="553" unicode="x" /><glyph d="M98 -102Q186 -75 243 13L66 424Q60 438 50.5 447Q41 456 29 456H10V524H242V456H165L299 134L407 398Q418 424 414 440Q410 456 382 456H356V524H570V456H547Q535 456 525 447Q515 438 508 423L342 40Q306 -44 266.5 -91.5Q227 -139 189 -162H98Z" glyph-name="y" horiz-adv-x="588" unicode="y" /><glyph d="M98 -102Q186 -75 243 13L66 424Q60 438 50.5 447Q41 456 29 456H10V524H242V456H165L299 134L407 398Q418 424 414 440Q410 456 382 456H356V524H570V456H547Q535 456 525 447Q515 438 508 423L342 40Q306 -44 266.5 -91.5Q227 -139 189 -162H98ZM302 700H410V661L316 567H256Z" glyph-name="yacute" horiz-adv-x="588" unicode="&#253;" /><glyph d="M98 -102Q186 -75 243 13L66 424Q60 438 50.5 447Q41 456 29 456H10V524H242V456H165L299 134L407 398Q418 424 414 440Q410 456 382 456H356V524H570V456H547Q535 456 525 447Q515 438 508 423L342 40Q306 -44 266.5 -91.5Q227 -139 189 -162H98ZM207 579Q182 579 165 596Q148 613 148 637Q148 661 165 678Q182 695 207 695Q232 695 249 678Q266 661 266 637Q266 613 249 596Q232 579 207 579ZM379 579Q354 579 337 596Q320 613 320 637Q320 661 337 678Q354 695 379 695Q404 695 421 678Q438 661 438 637Q438 613 421 596Q404 579 379 579Z" glyph-name="ydieresis" horiz-adv-x="588" unicode="&#255;" /><glyph d="M59 373H207L71 604Q63 618 52 626Q41 634 27 634H14V700H255V634H179L311 395H313L410 568Q427 601 417.5 617.5Q408 634 378 634H351V700H578V634H559Q545 634 534 625Q523 616 515 602L380 373H532V310H354V250H532V187H354V96Q354 85 363 74.5Q372 64 385 64H433V0H159V64H207Q219 64 228.5 74.5Q238 85 238 96V187H59V250H238V310H59Z" glyph-name="yen" horiz-adv-x="592" unicode="&#165;" /><glyph d="M16 73 339 453H112L101 360H36V524H464V449L140 70H376L386 163H454V0H16Z" glyph-name="z" horiz-adv-x="482" unicode="z" /><glyph d="M367 670 291 567H197L124 670V700H168L246 631L325 700H367ZM16 73 339 453H112L101 360H36V524H464V449L140 70H376L386 163H454V0H16Z" glyph-name="zcaron" horiz-adv-x="482" unicode="&#382;" /><glyph d="M322 -7Q263 -7 209.5 15Q156 37 115.5 81.5Q75 126 51 193Q27 260 27 350Q27 440 51 507Q75 574 115.5 618.5Q156 663 209.5 685Q263 707 322 707Q381 707 435 685Q489 663 529.5 618.5Q570 574 594 507Q618 440 618 350Q618 260 594 193Q570 126 529.5 81.5Q489 37 435 15Q381 -7 322 -7ZM322 69Q362 69 394 84.5Q426 100 449 134Q472 168 484.5 221Q497 274 497 348Q497 423 484.5 476Q472 529 449 562.5Q426 596 394 612Q362 628 322 628Q282 628 249.5 612Q217 596 194.5 562.5Q172 529 160 476Q148 423 148 348Q148 274 160 221Q172 168 194.5 134Q217 100 249.5 84.5Q282 69 322 69Z" glyph-name="zero" horiz-adv-x="645" unicode="0" /></font>
</defs>
</svg>
